<svg xmlns="http://www.w3.org/2000/svg" xmlns:xlink="http://www.w3.org/1999/xlink" width="270" height="228" viewBox="0 0 270 228">
  <defs>
    <clipPath id="clip-path">
      <rect id="Rectángulo_346" data-name="Rectángulo 346" width="270" height="228" transform="translate(1099 3452)" fill="none" stroke="#707070" stroke-width="1"/>
    </clipPath>
    <linearGradient id="linear-gradient" y1="0.5" x2="1" y2="0.5" gradientUnits="objectBoundingBox">
      <stop offset="0" stop-color="#d2deff" stop-opacity="0"/>
      <stop offset="1" stop-color="#b7c5ff"/>
    </linearGradient>
  </defs>
  <g id="Enmascarar_grupo_30" data-name="Enmascarar grupo 30" transform="translate(-1099 -3452)" clip-path="url(#clip-path)">
    <g id="Grupo_203" data-name="Grupo 203" transform="translate(-238 -1018)">
      <path id="Trazado_467" data-name="Trazado 467" d="M511.949,296.331C512.194,254.1,511.705,338.168,511.949,296.331Z" transform="translate(733 4336.003)" fill="url(#linear-gradient)"/>
      <path id="Trazado_468" data-name="Trazado 468" d="M237.064,220.336a2.93,2.93,0,0,0,2.931-2.931v-36.29a49.587,49.587,0,1,0-48.187-69.735H53.351a12.874,12.874,0,0,0-12.86,12.86v15.372a2.93,2.93,0,0,0,2.931,2.931H188.7a49.745,49.745,0,0,0,23.552,31.986v59.683H46.352V156.123a2.931,2.931,0,0,0-5.861,0V253.68a12.874,12.874,0,0,0,12.86,12.86h66.477l-8.157,32.324h-7.812a2.931,2.931,0,0,0,0,5.861h79.767a2.931,2.931,0,0,0,0-5.861h-7.812l-8.157-32.324h66.477a12.875,12.875,0,0,0,12.86-12.86v-5.954l1.233.817a8.791,8.791,0,0,0,13.649-7.327V188.96a2.931,2.931,0,0,0-5.861,0v52.256a2.931,2.931,0,0,1-4.55,2.442l-9.542-6.327a8.776,8.776,0,0,0-9.716,0l-9.543,6.327a2.931,2.931,0,0,1-4.549-2.442V177.439a49.221,49.221,0,0,0,16.02,3.677v36.29a2.93,2.93,0,0,0,2.931,2.931ZM169.77,298.864H117.716l8.157-32.324h35.741Zm51.275-48.855a8.785,8.785,0,0,0,4.857-1.466l9.542-6.327a2.926,2.926,0,0,1,3.239,0l2.449,1.624v9.84a7.007,7.007,0,0,1-7,7H53.351a7.006,7.006,0,0,1-7-7V240.074h165.9v1.143a8.794,8.794,0,0,0,8.792,8.793ZM46.352,136.682V124.24a7.006,7.006,0,0,1,7-7H189.606a49.661,49.661,0,0,0-1.876,19.441Zm146.982-5.063a43.5,43.5,0,0,1,2.935-15.722,2.908,2.908,0,0,0,.419-1.061,43.72,43.72,0,1,1-3.354,16.783Z" transform="translate(1314.348 4387.99)" fill="#fff"/>
      <path id="Trazado_469" data-name="Trazado 469" d="M360.446,170.089h-3.125a6.926,6.926,0,0,1-6.918-6.918v-9.646a6.925,6.925,0,0,1,6.918-6.917h3.125a6.925,6.925,0,0,1,6.918,6.917v9.646A6.926,6.926,0,0,1,360.446,170.089Zm-3.125-17.619a1.058,1.058,0,0,0-1.057,1.056v9.646a1.058,1.058,0,0,0,1.057,1.057h3.125a1.058,1.058,0,0,0,1.057-1.057v-9.646a1.058,1.058,0,0,0-1.057-1.056Z" transform="translate(1183.733 4362.433)" fill="#fafafa"/>
      <path id="Trazado_470" data-name="Trazado 470" d="M392.032,170.089a2.93,2.93,0,0,1-2.931-2.931V152.469h-.26a2.931,2.931,0,1,1,0-5.861h3.191a2.93,2.93,0,0,1,2.931,2.931v17.62A2.93,2.93,0,0,1,392.032,170.089Z" transform="translate(1169.036 4362.433)" fill="#fafafa"/>
      <g id="Grupo_202" data-name="Grupo 202" transform="translate(1370.739 4535.428)">
        <path id="Trazado_471" data-name="Trazado 471" d="M144.827,327.359H132.676a2.076,2.076,0,1,1,0-4.153h12.151a2.076,2.076,0,1,1,0,4.153Z" transform="translate(-107.911 -254.478)" fill="#fafafa"/>
        <path id="Trazado_472" data-name="Trazado 472" d="M82.286,333.671a2.027,2.027,0,0,1-1.433-.593l-2.828-2.828a2.026,2.026,0,0,1,2.865-2.866l1.4,1.395,4.977-4.977a2.026,2.026,0,1,1,2.865,2.866l-6.41,6.41A2.025,2.025,0,0,1,82.286,333.671Z" transform="translate(-76.291 -254.479)" fill="#fafafa"/>
        <g id="Grupo_200" data-name="Grupo 200" transform="translate(0)">
          <path id="Trazado_473" data-name="Trazado 473" d="M76.645,157.735a2.026,2.026,0,0,1-2.026-2.026v-.053a2.026,2.026,0,1,1,4.053,0v.053A2.026,2.026,0,0,1,76.645,157.735Z" transform="translate(-74.619 -153.629)" fill="#fafafa"/>
          <path id="Trazado_474" data-name="Trazado 474" d="M93.962,157.735a2.026,2.026,0,0,1-2.026-2.026v-.053a2.026,2.026,0,1,1,4.053,0v.053A2.026,2.026,0,0,1,93.962,157.735Z" transform="translate(-84.918 -153.629)" fill="#fafafa"/>
          <path id="Trazado_475" data-name="Trazado 475" d="M111.281,157.735a2.026,2.026,0,0,1-2.026-2.026v-.053a2.026,2.026,0,1,1,4.053,0v.053A2.027,2.027,0,0,1,111.281,157.735Z" transform="translate(-95.217 -153.629)" fill="#fafafa"/>
        </g>
        <g id="Grupo_201" data-name="Grupo 201" transform="translate(1.14 21.017)">
          <path id="Trazado_476" data-name="Trazado 476" d="M144.827,209.638H132.676a2.076,2.076,0,0,1,0-4.153h12.151a2.076,2.076,0,1,1,0,4.153Z" transform="translate(-109.051 -205.485)" fill="#fafafa"/>
          <path id="Trazado_477" data-name="Trazado 477" d="M193.063,209.638h-5.1a2.076,2.076,0,0,1,0-4.153h5.1a2.076,2.076,0,1,1,0,4.153Z" transform="translate(-141.932 -205.485)" fill="#fafafa"/>
          <path id="Trazado_478" data-name="Trazado 478" d="M160.182,229.957H132.676a2.076,2.076,0,1,1,0-4.153h27.505a2.076,2.076,0,1,1,0,4.153Z" transform="translate(-109.051 -217.569)" fill="#fafafa"/>
          <path id="Trazado_479" data-name="Trazado 479" d="M82.286,215.949a2.027,2.027,0,0,1-1.433-.593l-2.828-2.828a2.026,2.026,0,0,1,2.865-2.866l1.4,1.4,4.977-4.977a2.026,2.026,0,1,1,2.865,2.866l-6.41,6.41A2.025,2.025,0,0,1,82.286,215.949Z" transform="translate(-77.431 -205.486)" fill="#fafafa"/>
          <path id="Trazado_480" data-name="Trazado 480" d="M144.827,268.5H132.676a2.076,2.076,0,1,1,0-4.153h12.151a2.076,2.076,0,1,1,0,4.153Z" transform="translate(-109.051 -240.49)" fill="#fafafa"/>
          <path id="Trazado_481" data-name="Trazado 481" d="M193.063,268.5h-5.1a2.076,2.076,0,1,1,0-4.153h5.1a2.076,2.076,0,1,1,0,4.153Z" transform="translate(-141.932 -240.49)" fill="#fafafa"/>
          <path id="Trazado_482" data-name="Trazado 482" d="M160.182,288.818H132.676a2.076,2.076,0,1,1,0-4.153h27.505a2.076,2.076,0,1,1,0,4.153Z" transform="translate(-109.051 -252.574)" fill="#fafafa"/>
          <path id="Trazado_483" data-name="Trazado 483" d="M82.286,274.81a2.027,2.027,0,0,1-1.433-.593l-2.828-2.828a2.026,2.026,0,0,1,2.865-2.866l1.4,1.4,4.977-4.977a2.026,2.026,0,0,1,2.865,2.866l-6.41,6.41A2.025,2.025,0,0,1,82.286,274.81Z" transform="translate(-77.431 -240.491)" fill="#fafafa"/>
        </g>
      </g>
    </g>
  </g>
</svg>
