<svg xmlns="http://www.w3.org/2000/svg" width="40.26" height="46.011" viewBox="0 0 40.26 46.011">
  <path id="discord" d="M26.71,21.855A2.355,2.355,0,1,1,24.363,19.3,2.451,2.451,0,0,1,26.71,21.855ZM15.966,19.3a2.563,2.563,0,0,0,0,5.107,2.451,2.451,0,0,0,2.347-2.554A2.436,2.436,0,0,0,15.966,19.3ZM40.26,4.739V46.011c-5.8-5.122-3.942-3.426-10.675-9.685L30.8,40.582H4.716A4.728,4.728,0,0,1,0,35.843V4.739A4.728,4.728,0,0,1,4.716,0H35.544A4.728,4.728,0,0,1,40.26,4.739ZM33.7,26.548a30.808,30.808,0,0,0-3.313-13.412,11.376,11.376,0,0,0-6.465-2.416l-.322.368a15.311,15.311,0,0,1,5.728,2.922,19.548,19.548,0,0,0-17.185-.667c-.851.391-1.357.667-1.357.667A15.52,15.52,0,0,1,16.84,11l-.23-.276a11.376,11.376,0,0,0-6.465,2.416A30.808,30.808,0,0,0,6.833,26.548s1.932,3.336,7.017,3.5c0,0,.851-1.035,1.541-1.909a7.155,7.155,0,0,1-4.026-2.715c.338.237.9.544.943.575a16.77,16.77,0,0,0,14.356.805,13.165,13.165,0,0,0,2.646-1.357,7.259,7.259,0,0,1-4.164,2.738c.69.874,1.518,1.863,1.518,1.863C31.748,29.884,33.7,26.548,33.7,26.548Z" fill="#706967"/>
</svg>
