<svg xmlns="http://www.w3.org/2000/svg" width="41.268" height="41.268" viewBox="0 0 41.268 41.268">
  <path id="facebook" d="M36.846,2.25H4.422A4.422,4.422,0,0,0,0,6.672V39.1a4.422,4.422,0,0,0,4.422,4.422H17.064V29.487h-5.8v-6.6h5.8V17.851c0-5.725,3.408-8.887,8.628-8.887a35.157,35.157,0,0,1,5.114.446v5.619h-2.88c-2.838,0-3.723,1.761-3.723,3.568v4.288h6.336l-1.013,6.6H24.2v14.03H36.846A4.422,4.422,0,0,0,41.268,39.1V6.672A4.422,4.422,0,0,0,36.846,2.25Z" transform="translate(0 -2.25)" fill="#706967"/>
</svg>
