<svg xmlns="http://www.w3.org/2000/svg" width="358" height="337" viewBox="0 0 358 337">
  <g id="Grupo_89" data-name="Grupo 89" transform="translate(0 0.407)">
    <circle id="Elipse_48" data-name="Elipse 48" cx="2" cy="2" r="2" transform="translate(0 -0.407)" fill="#fff"/>
    <circle id="Elipse_49" data-name="Elipse 49" cx="2" cy="2" r="2" transform="translate(24 -0.407)" fill="#fff"/>
    <circle id="Elipse_50" data-name="Elipse 50" cx="2" cy="2" r="2" transform="translate(47 -0.407)" fill="#fff"/>
    <circle id="Elipse_51" data-name="Elipse 51" cx="2" cy="2" r="2" transform="translate(71 -0.407)" fill="#fff"/>
    <circle id="Elipse_52" data-name="Elipse 52" cx="2" cy="2" r="2" transform="translate(95 -0.407)" fill="#fff"/>
    <circle id="Elipse_53" data-name="Elipse 53" cx="2" cy="2" r="2" transform="translate(118 -0.407)" fill="#fff"/>
    <ellipse id="Elipse_54" data-name="Elipse 54" cx="2.5" cy="2" rx="2.5" ry="2" transform="translate(141 -0.407)" fill="#fff"/>
    <circle id="Elipse_55" data-name="Elipse 55" cx="2" cy="2" r="2" transform="translate(165 -0.407)" fill="#fff"/>
    <circle id="Elipse_56" data-name="Elipse 56" cx="2" cy="2" r="2" transform="translate(188 -0.407)" fill="#fff"/>
    <circle id="Elipse_57" data-name="Elipse 57" cx="2" cy="2" r="2" transform="translate(212 -0.407)" fill="#fff"/>
    <ellipse id="Elipse_58" data-name="Elipse 58" cx="2.5" cy="2" rx="2.5" ry="2" transform="translate(235 -0.407)" fill="#fff"/>
    <circle id="Elipse_59" data-name="Elipse 59" cx="2" cy="2" r="2" transform="translate(259 -0.407)" fill="#fff"/>
    <circle id="Elipse_60" data-name="Elipse 60" cx="2" cy="2" r="2" transform="translate(283 -0.407)" fill="#fff"/>
    <circle id="Elipse_61" data-name="Elipse 61" cx="2" cy="2" r="2" transform="translate(306 -0.407)" fill="#fff"/>
    <circle id="Elipse_62" data-name="Elipse 62" cx="2" cy="2" r="2" transform="translate(330 -0.407)" fill="#fff"/>
    <circle id="Elipse_63" data-name="Elipse 63" cx="2" cy="2" r="2" transform="translate(354 -0.407)" fill="#fff"/>
    <circle id="Elipse_64" data-name="Elipse 64" cx="2" cy="2" r="2" transform="translate(0 27.593)" fill="#fff"/>
    <circle id="Elipse_65" data-name="Elipse 65" cx="2" cy="2" r="2" transform="translate(24 27.593)" fill="#fff"/>
    <circle id="Elipse_66" data-name="Elipse 66" cx="2" cy="2" r="2" transform="translate(47 27.593)" fill="#fff"/>
    <circle id="Elipse_67" data-name="Elipse 67" cx="2" cy="2" r="2" transform="translate(71 27.593)" fill="#fff"/>
    <circle id="Elipse_68" data-name="Elipse 68" cx="2" cy="2" r="2" transform="translate(95 27.593)" fill="#fff"/>
    <circle id="Elipse_69" data-name="Elipse 69" cx="2" cy="2" r="2" transform="translate(118 27.593)" fill="#fff"/>
    <ellipse id="Elipse_70" data-name="Elipse 70" cx="2.5" cy="2" rx="2.5" ry="2" transform="translate(141 27.593)" fill="#fff"/>
    <circle id="Elipse_71" data-name="Elipse 71" cx="2" cy="2" r="2" transform="translate(165 27.593)" fill="#fff"/>
    <circle id="Elipse_72" data-name="Elipse 72" cx="2" cy="2" r="2" transform="translate(188 27.593)" fill="#fff"/>
    <circle id="Elipse_73" data-name="Elipse 73" cx="2" cy="2" r="2" transform="translate(212 27.593)" fill="#fff"/>
    <ellipse id="Elipse_74" data-name="Elipse 74" cx="2.5" cy="2" rx="2.5" ry="2" transform="translate(235 27.593)" fill="#fff"/>
    <circle id="Elipse_75" data-name="Elipse 75" cx="2" cy="2" r="2" transform="translate(259 27.593)" fill="#fff"/>
    <circle id="Elipse_76" data-name="Elipse 76" cx="2" cy="2" r="2" transform="translate(283 27.593)" fill="#fff"/>
    <circle id="Elipse_77" data-name="Elipse 77" cx="2" cy="2" r="2" transform="translate(306 27.593)" fill="#fff"/>
    <circle id="Elipse_78" data-name="Elipse 78" cx="2" cy="2" r="2" transform="translate(330 27.593)" fill="#fff"/>
    <circle id="Elipse_79" data-name="Elipse 79" cx="2" cy="2" r="2" transform="translate(354 27.593)" fill="#fff"/>
    <circle id="Elipse_80" data-name="Elipse 80" cx="2" cy="2" r="2" transform="translate(0 55.593)" fill="#fff"/>
    <circle id="Elipse_81" data-name="Elipse 81" cx="2" cy="2" r="2" transform="translate(24 55.593)" fill="#fff"/>
    <circle id="Elipse_82" data-name="Elipse 82" cx="2" cy="2" r="2" transform="translate(47 55.593)" fill="#fff"/>
    <circle id="Elipse_83" data-name="Elipse 83" cx="2" cy="2" r="2" transform="translate(71 55.593)" fill="#fff"/>
    <circle id="Elipse_84" data-name="Elipse 84" cx="2" cy="2" r="2" transform="translate(95 55.593)" fill="#fff"/>
    <circle id="Elipse_85" data-name="Elipse 85" cx="2" cy="2" r="2" transform="translate(118 55.593)" fill="#fff"/>
    <ellipse id="Elipse_86" data-name="Elipse 86" cx="2.5" cy="2" rx="2.5" ry="2" transform="translate(141 55.593)" fill="#fff"/>
    <circle id="Elipse_87" data-name="Elipse 87" cx="2" cy="2" r="2" transform="translate(165 55.593)" fill="#fff"/>
    <circle id="Elipse_88" data-name="Elipse 88" cx="2" cy="2" r="2" transform="translate(188 55.593)" fill="#fff"/>
    <circle id="Elipse_89" data-name="Elipse 89" cx="2" cy="2" r="2" transform="translate(212 55.593)" fill="#fff"/>
    <ellipse id="Elipse_90" data-name="Elipse 90" cx="2.5" cy="2" rx="2.5" ry="2" transform="translate(235 55.593)" fill="#fff"/>
    <circle id="Elipse_91" data-name="Elipse 91" cx="2" cy="2" r="2" transform="translate(259 55.593)" fill="#fff"/>
    <circle id="Elipse_92" data-name="Elipse 92" cx="2" cy="2" r="2" transform="translate(283 55.593)" fill="#fff"/>
    <circle id="Elipse_93" data-name="Elipse 93" cx="2" cy="2" r="2" transform="translate(306 55.593)" fill="#fff"/>
    <circle id="Elipse_94" data-name="Elipse 94" cx="2" cy="2" r="2" transform="translate(330 55.593)" fill="#fff"/>
    <circle id="Elipse_95" data-name="Elipse 95" cx="2" cy="2" r="2" transform="translate(354 55.593)" fill="#fff"/>
    <circle id="Elipse_96" data-name="Elipse 96" cx="2" cy="2" r="2" transform="translate(0 83.593)" fill="#fff"/>
    <circle id="Elipse_97" data-name="Elipse 97" cx="2" cy="2" r="2" transform="translate(24 83.593)" fill="#fff"/>
    <circle id="Elipse_98" data-name="Elipse 98" cx="2" cy="2" r="2" transform="translate(47 83.593)" fill="#fff"/>
    <circle id="Elipse_99" data-name="Elipse 99" cx="2" cy="2" r="2" transform="translate(71 83.593)" fill="#fff"/>
    <circle id="Elipse_100" data-name="Elipse 100" cx="2" cy="2" r="2" transform="translate(95 83.593)" fill="#fff"/>
    <circle id="Elipse_101" data-name="Elipse 101" cx="2" cy="2" r="2" transform="translate(118 83.593)" fill="#fff"/>
    <ellipse id="Elipse_102" data-name="Elipse 102" cx="2.5" cy="2" rx="2.5" ry="2" transform="translate(141 83.593)" fill="#fff"/>
    <circle id="Elipse_103" data-name="Elipse 103" cx="2" cy="2" r="2" transform="translate(165 83.593)" fill="#fff"/>
    <circle id="Elipse_104" data-name="Elipse 104" cx="2" cy="2" r="2" transform="translate(188 83.593)" fill="#fff"/>
    <circle id="Elipse_105" data-name="Elipse 105" cx="2" cy="2" r="2" transform="translate(212 83.593)" fill="#fff"/>
    <ellipse id="Elipse_106" data-name="Elipse 106" cx="2.5" cy="2" rx="2.5" ry="2" transform="translate(235 83.593)" fill="#fff"/>
    <circle id="Elipse_107" data-name="Elipse 107" cx="2" cy="2" r="2" transform="translate(259 83.593)" fill="#fff"/>
    <circle id="Elipse_108" data-name="Elipse 108" cx="2" cy="2" r="2" transform="translate(283 83.593)" fill="#fff"/>
    <circle id="Elipse_109" data-name="Elipse 109" cx="2" cy="2" r="2" transform="translate(306 83.593)" fill="#fff"/>
    <circle id="Elipse_110" data-name="Elipse 110" cx="2" cy="2" r="2" transform="translate(330 83.593)" fill="#fff"/>
    <circle id="Elipse_111" data-name="Elipse 111" cx="2" cy="2" r="2" transform="translate(354 83.593)" fill="#fff"/>
    <circle id="Elipse_112" data-name="Elipse 112" cx="2" cy="2" r="2" transform="translate(0 110.593)" fill="#fff"/>
    <circle id="Elipse_113" data-name="Elipse 113" cx="2" cy="2" r="2" transform="translate(24 110.593)" fill="#fff"/>
    <circle id="Elipse_114" data-name="Elipse 114" cx="2" cy="2" r="2" transform="translate(47 110.593)" fill="#fff"/>
    <circle id="Elipse_115" data-name="Elipse 115" cx="2" cy="2" r="2" transform="translate(71 110.593)" fill="#fff"/>
    <circle id="Elipse_116" data-name="Elipse 116" cx="2" cy="2" r="2" transform="translate(95 110.593)" fill="#fff"/>
    <circle id="Elipse_117" data-name="Elipse 117" cx="2" cy="2" r="2" transform="translate(118 110.593)" fill="#fff"/>
    <ellipse id="Elipse_118" data-name="Elipse 118" cx="2.5" cy="2" rx="2.5" ry="2" transform="translate(141 110.593)" fill="#fff"/>
    <circle id="Elipse_119" data-name="Elipse 119" cx="2" cy="2" r="2" transform="translate(165 110.593)" fill="#fff"/>
    <circle id="Elipse_120" data-name="Elipse 120" cx="2" cy="2" r="2" transform="translate(188 110.593)" fill="#fff"/>
    <circle id="Elipse_121" data-name="Elipse 121" cx="2" cy="2" r="2" transform="translate(212 110.593)" fill="#fff"/>
    <ellipse id="Elipse_122" data-name="Elipse 122" cx="2.5" cy="2" rx="2.5" ry="2" transform="translate(235 110.593)" fill="#fff"/>
    <circle id="Elipse_123" data-name="Elipse 123" cx="2" cy="2" r="2" transform="translate(259 110.593)" fill="#fff"/>
    <circle id="Elipse_124" data-name="Elipse 124" cx="2" cy="2" r="2" transform="translate(283 110.593)" fill="#fff"/>
    <circle id="Elipse_125" data-name="Elipse 125" cx="2" cy="2" r="2" transform="translate(306 110.593)" fill="#fff"/>
    <circle id="Elipse_126" data-name="Elipse 126" cx="2" cy="2" r="2" transform="translate(330 110.593)" fill="#fff"/>
    <circle id="Elipse_127" data-name="Elipse 127" cx="2" cy="2" r="2" transform="translate(354 110.593)" fill="#fff"/>
    <circle id="Elipse_128" data-name="Elipse 128" cx="2" cy="2" r="2" transform="translate(0 138.593)" fill="#fff"/>
    <circle id="Elipse_129" data-name="Elipse 129" cx="2" cy="2" r="2" transform="translate(24 138.593)" fill="#fff"/>
    <circle id="Elipse_130" data-name="Elipse 130" cx="2" cy="2" r="2" transform="translate(47 138.593)" fill="#fff"/>
    <circle id="Elipse_131" data-name="Elipse 131" cx="2" cy="2" r="2" transform="translate(71 138.593)" fill="#fff"/>
    <circle id="Elipse_132" data-name="Elipse 132" cx="2" cy="2" r="2" transform="translate(95 138.593)" fill="#fff"/>
    <circle id="Elipse_133" data-name="Elipse 133" cx="2" cy="2" r="2" transform="translate(118 138.593)" fill="#fff"/>
    <ellipse id="Elipse_134" data-name="Elipse 134" cx="2.5" cy="2" rx="2.5" ry="2" transform="translate(141 138.593)" fill="#fff"/>
    <circle id="Elipse_135" data-name="Elipse 135" cx="2" cy="2" r="2" transform="translate(165 138.593)" fill="#fff"/>
    <circle id="Elipse_136" data-name="Elipse 136" cx="2" cy="2" r="2" transform="translate(188 138.593)" fill="#fff"/>
    <circle id="Elipse_137" data-name="Elipse 137" cx="2" cy="2" r="2" transform="translate(212 138.593)" fill="#fff"/>
    <ellipse id="Elipse_138" data-name="Elipse 138" cx="2.5" cy="2" rx="2.5" ry="2" transform="translate(235 138.593)" fill="#fff"/>
    <circle id="Elipse_139" data-name="Elipse 139" cx="2" cy="2" r="2" transform="translate(259 138.593)" fill="#fff"/>
    <circle id="Elipse_140" data-name="Elipse 140" cx="2" cy="2" r="2" transform="translate(283 138.593)" fill="#fff"/>
    <circle id="Elipse_141" data-name="Elipse 141" cx="2" cy="2" r="2" transform="translate(306 138.593)" fill="#fff"/>
    <circle id="Elipse_142" data-name="Elipse 142" cx="2" cy="2" r="2" transform="translate(330 138.593)" fill="#fff"/>
    <circle id="Elipse_143" data-name="Elipse 143" cx="2" cy="2" r="2" transform="translate(354 138.593)" fill="#fff"/>
    <circle id="Elipse_144" data-name="Elipse 144" cx="2" cy="2" r="2" transform="translate(0 166.593)" fill="#fff"/>
    <circle id="Elipse_145" data-name="Elipse 145" cx="2" cy="2" r="2" transform="translate(24 166.593)" fill="#fff"/>
    <circle id="Elipse_146" data-name="Elipse 146" cx="2" cy="2" r="2" transform="translate(47 166.593)" fill="#fff"/>
    <circle id="Elipse_147" data-name="Elipse 147" cx="2" cy="2" r="2" transform="translate(71 166.593)" fill="#fff"/>
    <circle id="Elipse_148" data-name="Elipse 148" cx="2" cy="2" r="2" transform="translate(95 166.593)" fill="#fff"/>
    <circle id="Elipse_149" data-name="Elipse 149" cx="2" cy="2" r="2" transform="translate(118 166.593)" fill="#fff"/>
    <ellipse id="Elipse_150" data-name="Elipse 150" cx="2.5" cy="2" rx="2.5" ry="2" transform="translate(141 166.593)" fill="#fff"/>
    <circle id="Elipse_151" data-name="Elipse 151" cx="2" cy="2" r="2" transform="translate(165 166.593)" fill="#fff"/>
    <circle id="Elipse_152" data-name="Elipse 152" cx="2" cy="2" r="2" transform="translate(188 166.593)" fill="#fff"/>
    <circle id="Elipse_153" data-name="Elipse 153" cx="2" cy="2" r="2" transform="translate(212 166.593)" fill="#fff"/>
    <ellipse id="Elipse_154" data-name="Elipse 154" cx="2.5" cy="2" rx="2.5" ry="2" transform="translate(235 166.593)" fill="#fff"/>
    <circle id="Elipse_155" data-name="Elipse 155" cx="2" cy="2" r="2" transform="translate(259 166.593)" fill="#fff"/>
    <circle id="Elipse_156" data-name="Elipse 156" cx="2" cy="2" r="2" transform="translate(283 166.593)" fill="#fff"/>
    <circle id="Elipse_157" data-name="Elipse 157" cx="2" cy="2" r="2" transform="translate(306 166.593)" fill="#fff"/>
    <circle id="Elipse_158" data-name="Elipse 158" cx="2" cy="2" r="2" transform="translate(330 166.593)" fill="#fff"/>
    <circle id="Elipse_159" data-name="Elipse 159" cx="2" cy="2" r="2" transform="translate(354 166.593)" fill="#fff"/>
    <circle id="Elipse_160" data-name="Elipse 160" cx="2" cy="2" r="2" transform="translate(0 193.593)" fill="#fff"/>
    <circle id="Elipse_161" data-name="Elipse 161" cx="2" cy="2" r="2" transform="translate(24 193.593)" fill="#fff"/>
    <circle id="Elipse_162" data-name="Elipse 162" cx="2" cy="2" r="2" transform="translate(47 193.593)" fill="#fff"/>
    <circle id="Elipse_163" data-name="Elipse 163" cx="2" cy="2" r="2" transform="translate(71 193.593)" fill="#fff"/>
    <circle id="Elipse_164" data-name="Elipse 164" cx="2" cy="2" r="2" transform="translate(95 193.593)" fill="#fff"/>
    <circle id="Elipse_165" data-name="Elipse 165" cx="2" cy="2" r="2" transform="translate(118 193.593)" fill="#fff"/>
    <ellipse id="Elipse_166" data-name="Elipse 166" cx="2.5" cy="2" rx="2.5" ry="2" transform="translate(141 193.593)" fill="#fff"/>
    <circle id="Elipse_167" data-name="Elipse 167" cx="2" cy="2" r="2" transform="translate(165 193.593)" fill="#fff"/>
    <circle id="Elipse_168" data-name="Elipse 168" cx="2" cy="2" r="2" transform="translate(188 193.593)" fill="#fff"/>
    <circle id="Elipse_169" data-name="Elipse 169" cx="2" cy="2" r="2" transform="translate(212 193.593)" fill="#fff"/>
    <ellipse id="Elipse_170" data-name="Elipse 170" cx="2.5" cy="2" rx="2.5" ry="2" transform="translate(235 193.593)" fill="#fff"/>
    <circle id="Elipse_171" data-name="Elipse 171" cx="2" cy="2" r="2" transform="translate(259 193.593)" fill="#fff"/>
    <circle id="Elipse_172" data-name="Elipse 172" cx="2" cy="2" r="2" transform="translate(283 193.593)" fill="#fff"/>
    <circle id="Elipse_173" data-name="Elipse 173" cx="2" cy="2" r="2" transform="translate(306 193.593)" fill="#fff"/>
    <circle id="Elipse_174" data-name="Elipse 174" cx="2" cy="2" r="2" transform="translate(330 193.593)" fill="#fff"/>
    <circle id="Elipse_175" data-name="Elipse 175" cx="2" cy="2" r="2" transform="translate(354 193.593)" fill="#fff"/>
    <circle id="Elipse_176" data-name="Elipse 176" cx="2" cy="2" r="2" transform="translate(0 221.593)" fill="#fff"/>
    <circle id="Elipse_177" data-name="Elipse 177" cx="2" cy="2" r="2" transform="translate(24 221.593)" fill="#fff"/>
    <circle id="Elipse_178" data-name="Elipse 178" cx="2" cy="2" r="2" transform="translate(47 221.593)" fill="#fff"/>
    <circle id="Elipse_179" data-name="Elipse 179" cx="2" cy="2" r="2" transform="translate(71 221.593)" fill="#fff"/>
    <circle id="Elipse_180" data-name="Elipse 180" cx="2" cy="2" r="2" transform="translate(95 221.593)" fill="#fff"/>
    <circle id="Elipse_181" data-name="Elipse 181" cx="2" cy="2" r="2" transform="translate(118 221.593)" fill="#fff"/>
    <ellipse id="Elipse_182" data-name="Elipse 182" cx="2.5" cy="2" rx="2.5" ry="2" transform="translate(141 221.593)" fill="#fff"/>
    <circle id="Elipse_183" data-name="Elipse 183" cx="2" cy="2" r="2" transform="translate(165 221.593)" fill="#fff"/>
    <circle id="Elipse_184" data-name="Elipse 184" cx="2" cy="2" r="2" transform="translate(188 221.593)" fill="#fff"/>
    <circle id="Elipse_185" data-name="Elipse 185" cx="2" cy="2" r="2" transform="translate(212 221.593)" fill="#fff"/>
    <ellipse id="Elipse_186" data-name="Elipse 186" cx="2.5" cy="2" rx="2.5" ry="2" transform="translate(235 221.593)" fill="#fff"/>
    <circle id="Elipse_187" data-name="Elipse 187" cx="2" cy="2" r="2" transform="translate(259 221.593)" fill="#fff"/>
    <circle id="Elipse_188" data-name="Elipse 188" cx="2" cy="2" r="2" transform="translate(283 221.593)" fill="#fff"/>
    <circle id="Elipse_189" data-name="Elipse 189" cx="2" cy="2" r="2" transform="translate(306 221.593)" fill="#fff"/>
    <circle id="Elipse_190" data-name="Elipse 190" cx="2" cy="2" r="2" transform="translate(330 221.593)" fill="#fff"/>
    <circle id="Elipse_191" data-name="Elipse 191" cx="2" cy="2" r="2" transform="translate(354 221.593)" fill="#fff"/>
    <circle id="Elipse_192" data-name="Elipse 192" cx="2" cy="2" r="2" transform="translate(0 249.593)" fill="#fff"/>
    <circle id="Elipse_193" data-name="Elipse 193" cx="2" cy="2" r="2" transform="translate(24 249.593)" fill="#fff"/>
    <circle id="Elipse_194" data-name="Elipse 194" cx="2" cy="2" r="2" transform="translate(47 249.593)" fill="#fff"/>
    <circle id="Elipse_195" data-name="Elipse 195" cx="2" cy="2" r="2" transform="translate(71 249.593)" fill="#fff"/>
    <circle id="Elipse_196" data-name="Elipse 196" cx="2" cy="2" r="2" transform="translate(95 249.593)" fill="#fff"/>
    <circle id="Elipse_197" data-name="Elipse 197" cx="2" cy="2" r="2" transform="translate(118 249.593)" fill="#fff"/>
    <ellipse id="Elipse_198" data-name="Elipse 198" cx="2.5" cy="2" rx="2.5" ry="2" transform="translate(141 249.593)" fill="#fff"/>
    <circle id="Elipse_199" data-name="Elipse 199" cx="2" cy="2" r="2" transform="translate(165 249.593)" fill="#fff"/>
    <circle id="Elipse_200" data-name="Elipse 200" cx="2" cy="2" r="2" transform="translate(188 249.593)" fill="#fff"/>
    <circle id="Elipse_201" data-name="Elipse 201" cx="2" cy="2" r="2" transform="translate(212 249.593)" fill="#fff"/>
    <ellipse id="Elipse_202" data-name="Elipse 202" cx="2.5" cy="2" rx="2.5" ry="2" transform="translate(235 249.593)" fill="#fff"/>
    <circle id="Elipse_203" data-name="Elipse 203" cx="2" cy="2" r="2" transform="translate(259 249.593)" fill="#fff"/>
    <circle id="Elipse_204" data-name="Elipse 204" cx="2" cy="2" r="2" transform="translate(283 249.593)" fill="#fff"/>
    <circle id="Elipse_205" data-name="Elipse 205" cx="2" cy="2" r="2" transform="translate(306 249.593)" fill="#fff"/>
    <circle id="Elipse_206" data-name="Elipse 206" cx="2" cy="2" r="2" transform="translate(330 249.593)" fill="#fff"/>
    <circle id="Elipse_207" data-name="Elipse 207" cx="2" cy="2" r="2" transform="translate(354 249.593)" fill="#fff"/>
    <ellipse id="Elipse_208" data-name="Elipse 208" cx="2" cy="2.5" rx="2" ry="2.5" transform="translate(0 276.593)" fill="#fff"/>
    <ellipse id="Elipse_209" data-name="Elipse 209" cx="2" cy="2.5" rx="2" ry="2.5" transform="translate(24 276.593)" fill="#fff"/>
    <ellipse id="Elipse_210" data-name="Elipse 210" cx="2" cy="2.5" rx="2" ry="2.5" transform="translate(47 276.593)" fill="#fff"/>
    <ellipse id="Elipse_211" data-name="Elipse 211" cx="2" cy="2.5" rx="2" ry="2.5" transform="translate(71 276.593)" fill="#fff"/>
    <ellipse id="Elipse_212" data-name="Elipse 212" cx="2" cy="2.5" rx="2" ry="2.5" transform="translate(95 276.593)" fill="#fff"/>
    <ellipse id="Elipse_213" data-name="Elipse 213" cx="2" cy="2.5" rx="2" ry="2.5" transform="translate(118 276.593)" fill="#fff"/>
    <circle id="Elipse_214" data-name="Elipse 214" cx="2.5" cy="2.5" r="2.5" transform="translate(141 276.593)" fill="#fff"/>
    <ellipse id="Elipse_215" data-name="Elipse 215" cx="2" cy="2.5" rx="2" ry="2.5" transform="translate(165 276.593)" fill="#fff"/>
    <ellipse id="Elipse_216" data-name="Elipse 216" cx="2" cy="2.5" rx="2" ry="2.5" transform="translate(188 276.593)" fill="#fff"/>
    <ellipse id="Elipse_217" data-name="Elipse 217" cx="2" cy="2.5" rx="2" ry="2.5" transform="translate(212 276.593)" fill="#fff"/>
    <circle id="Elipse_218" data-name="Elipse 218" cx="2.5" cy="2.5" r="2.5" transform="translate(235 276.593)" fill="#fff"/>
    <ellipse id="Elipse_219" data-name="Elipse 219" cx="2" cy="2.5" rx="2" ry="2.5" transform="translate(259 276.593)" fill="#fff"/>
    <ellipse id="Elipse_220" data-name="Elipse 220" cx="2" cy="2.5" rx="2" ry="2.5" transform="translate(283 276.593)" fill="#fff"/>
    <ellipse id="Elipse_221" data-name="Elipse 221" cx="2" cy="2.5" rx="2" ry="2.5" transform="translate(306 276.593)" fill="#fff"/>
    <ellipse id="Elipse_222" data-name="Elipse 222" cx="2" cy="2.5" rx="2" ry="2.5" transform="translate(330 276.593)" fill="#fff"/>
    <ellipse id="Elipse_223" data-name="Elipse 223" cx="2" cy="2.5" rx="2" ry="2.5" transform="translate(354 276.593)" fill="#fff"/>
    <circle id="Elipse_224" data-name="Elipse 224" cx="2" cy="2" r="2" transform="translate(0 304.593)" fill="#fff"/>
    <circle id="Elipse_225" data-name="Elipse 225" cx="2" cy="2" r="2" transform="translate(24 304.593)" fill="#fff"/>
    <circle id="Elipse_226" data-name="Elipse 226" cx="2" cy="2" r="2" transform="translate(47 304.593)" fill="#fff"/>
    <circle id="Elipse_227" data-name="Elipse 227" cx="2" cy="2" r="2" transform="translate(71 304.593)" fill="#fff"/>
    <circle id="Elipse_228" data-name="Elipse 228" cx="2" cy="2" r="2" transform="translate(95 304.593)" fill="#fff"/>
    <circle id="Elipse_229" data-name="Elipse 229" cx="2" cy="2" r="2" transform="translate(118 304.593)" fill="#fff"/>
    <ellipse id="Elipse_230" data-name="Elipse 230" cx="2.5" cy="2" rx="2.5" ry="2" transform="translate(141 304.593)" fill="#fff"/>
    <circle id="Elipse_231" data-name="Elipse 231" cx="2" cy="2" r="2" transform="translate(165 304.593)" fill="#fff"/>
    <circle id="Elipse_232" data-name="Elipse 232" cx="2" cy="2" r="2" transform="translate(188 304.593)" fill="#fff"/>
    <circle id="Elipse_233" data-name="Elipse 233" cx="2" cy="2" r="2" transform="translate(212 304.593)" fill="#fff"/>
    <ellipse id="Elipse_234" data-name="Elipse 234" cx="2.5" cy="2" rx="2.5" ry="2" transform="translate(235 304.593)" fill="#fff"/>
    <circle id="Elipse_235" data-name="Elipse 235" cx="2" cy="2" r="2" transform="translate(259 304.593)" fill="#fff"/>
    <circle id="Elipse_236" data-name="Elipse 236" cx="2" cy="2" r="2" transform="translate(283 304.593)" fill="#fff"/>
    <circle id="Elipse_237" data-name="Elipse 237" cx="2" cy="2" r="2" transform="translate(306 304.593)" fill="#fff"/>
    <circle id="Elipse_238" data-name="Elipse 238" cx="2" cy="2" r="2" transform="translate(330 304.593)" fill="#fff"/>
    <circle id="Elipse_239" data-name="Elipse 239" cx="2" cy="2" r="2" transform="translate(354 304.593)" fill="#fff"/>
    <circle id="Elipse_240" data-name="Elipse 240" cx="2" cy="2" r="2" transform="translate(0 332.593)" fill="#fff"/>
    <circle id="Elipse_241" data-name="Elipse 241" cx="2" cy="2" r="2" transform="translate(24 332.593)" fill="#fff"/>
    <circle id="Elipse_242" data-name="Elipse 242" cx="2" cy="2" r="2" transform="translate(47 332.593)" fill="#fff"/>
    <circle id="Elipse_243" data-name="Elipse 243" cx="2" cy="2" r="2" transform="translate(71 332.593)" fill="#fff"/>
    <circle id="Elipse_244" data-name="Elipse 244" cx="2" cy="2" r="2" transform="translate(95 332.593)" fill="#fff"/>
    <circle id="Elipse_245" data-name="Elipse 245" cx="2" cy="2" r="2" transform="translate(118 332.593)" fill="#fff"/>
    <ellipse id="Elipse_246" data-name="Elipse 246" cx="2.5" cy="2" rx="2.5" ry="2" transform="translate(141 332.593)" fill="#fff"/>
    <circle id="Elipse_247" data-name="Elipse 247" cx="2" cy="2" r="2" transform="translate(165 332.593)" fill="#fff"/>
    <circle id="Elipse_248" data-name="Elipse 248" cx="2" cy="2" r="2" transform="translate(188 332.593)" fill="#fff"/>
    <circle id="Elipse_249" data-name="Elipse 249" cx="2" cy="2" r="2" transform="translate(212 332.593)" fill="#fff"/>
    <ellipse id="Elipse_250" data-name="Elipse 250" cx="2.5" cy="2" rx="2.5" ry="2" transform="translate(235 332.593)" fill="#fff"/>
    <circle id="Elipse_251" data-name="Elipse 251" cx="2" cy="2" r="2" transform="translate(259 332.593)" fill="#fff"/>
    <circle id="Elipse_252" data-name="Elipse 252" cx="2" cy="2" r="2" transform="translate(283 332.593)" fill="#fff"/>
    <circle id="Elipse_253" data-name="Elipse 253" cx="2" cy="2" r="2" transform="translate(306 332.593)" fill="#fff"/>
    <circle id="Elipse_254" data-name="Elipse 254" cx="2" cy="2" r="2" transform="translate(330 332.593)" fill="#fff"/>
    <circle id="Elipse_255" data-name="Elipse 255" cx="2" cy="2" r="2" transform="translate(354 332.593)" fill="#fff"/>
  </g>
</svg>
