<svg xmlns="http://www.w3.org/2000/svg" width="54.795" height="46.533" viewBox="0 0 54.795 46.533">
  <g id="Grupo_256" data-name="Grupo 256" transform="translate(0.5 0.5)">
    <g id="Grupo_247" data-name="Grupo 247" transform="translate(0 0)">
      <path id="Trazado_703" data-name="Trazado 703" d="M-366.057,1294.944c-1.6-.007-3.2,0-4.795-.026a2.409,2.409,0,0,1-2.672-2.343,2.39,2.39,0,0,1,2.559-2.661c1.324-.066,2.532-.309,2.37-1.882-.159-1.55-1.523-1.487-2.747-1.527-2-.066-4.259.664-5.59-1.665v-1.681a3.76,3.76,0,0,1,3.739-1.7c1.314.107,2.643.016,3.965.023a2.071,2.071,0,0,0,2.339-1.888,1.965,1.965,0,0,0-1.9-2.293c-1.486-.2-2.4-.923-2.195-2.436.192-1.4,1.277-1.861,2.625-1.794.764.039,1.531.008,2.3.008.862.721.79,1.739.8,2.7q.056,8.127,0,16.255C-365.276,1293.043-365.2,1294.134-366.057,1294.944Z" transform="translate(376.932 -1252.75)" fill="#def8fe" stroke="#def8fe" stroke-width="1"/>
      <path id="Trazado_704" data-name="Trazado 704" d="M-236.838,1275.242a3.97,3.97,0,0,1-4.189,2.113c-1.735-.158-3.172.411-3.321,2.337-.138,1.771.962,2.572,2.722,2.74A2.3,2.3,0,0,1-239.4,1285a2.4,2.4,0,0,1-2.448,2.391c-1.392.106-2.8.043-4.2.054-.769-.575-.561-1.468-.737-2.237-.026-3.342-.118-6.685.049-10.028-.2-3.355-.093-6.711-.061-10.065a2.414,2.414,0,0,1,.764-2.088c.694.009,1.388.038,2.082.023a2.493,2.493,0,0,1,2.845,2.161c.251,1.57-.716,2.432-2.143,2.837-.2.056-.42.024-.617.081a1.606,1.606,0,0,0-1.348,1.821,1.664,1.664,0,0,0,1.729,1.491,12.2,12.2,0,0,0,2.08,0,4.94,4.94,0,0,1,4.562,1.7Z" transform="translate(290.632 -1246.095)" fill="#def8fe" stroke="#def8fe" stroke-width="1"/>
      <path id="Trazado_705" data-name="Trazado 705" d="M-376.932,1274.3a9.027,9.027,0,0,1,.9-.838,1.907,1.907,0,0,1,2.785.35,1.855,1.855,0,0,1,0,2.652,1.9,1.9,0,0,1-2.784.351,9.3,9.3,0,0,1-.9-.835Z" transform="translate(376.932 -1252.718)" fill="#d8f2f8" stroke="#def8fe" stroke-width="1"/>
      <path id="Trazado_706" data-name="Trazado 706" d="M-312.5,1245.485c-1.355,1.079-2.955.5-4.448.652-.346.034-.7-.03-1.046.013-.851.105-2.191-.369-2.388.617-.189.954,1.188.87,1.917,1.153,1.292.5,2.206,1.334,2.076,2.789a2.681,2.681,0,0,1-2.527,2.412,42.738,42.738,0,0,1-6.482.158c-3.306.033-3.305.013-4.251,3.069a1.624,1.624,0,0,1-.451.7c-1.3.694-2.7.467-4.08.413a42.364,42.364,0,0,1-4.8.035,16.264,16.264,0,0,0-7.1,1.061l-.023-.027q0-10.935-.005-21.869,0-2.942,0-5.885a6.2,6.2,0,0,1,0-5.886q.031-2.082.063-4.163a2.293,2.293,0,0,1,2.564-2.554c2.222,0,4.445.019,6.667.03,1.251,1.671.584,3.573.651,5.386q.177,3.607.006,7.213c0,2.427-.033,4.859.011,7.29.01.539-.091,1.215.477,1.5.5.253.918-.224,1.25-.553a2.251,2.251,0,0,1,3.617-.019c.332.332.736.811,1.243.594.6-.258.494-.94.506-1.473.054-2.431,0-4.863.021-7.3a70.7,70.7,0,0,1,0-7.227c.061-1.823-.6-3.733.65-5.411q6.247-.018,12.494-.033c2.765,0,3.351.562,3.525,3.356a6.211,6.211,0,0,1,0,5.9Z" transform="translate(356.979 -1216.332)" fill="#3b2c2c" stroke="#def8fe" stroke-width="1"/>
      <path id="Trazado_707" data-name="Trazado 707" d="M-308.6,1214.584q-.026,2.712-.051,5.423a10.446,10.446,0,0,1-8.327,0q-.026-2.712-.052-5.424A5.69,5.69,0,0,1-308.6,1214.584Z" transform="translate(337.194 -1212.716)" fill="#3b2c2c" stroke="#def8fe" stroke-width="1"/>
      <path id="Trazado_708" data-name="Trazado 708" d="M-244.395,1234q0-2.948,0-5.9c.9,0,1.814-.055,2.71.028a2.734,2.734,0,0,1,2.782,2.8,2.769,2.769,0,0,1-2.578,3.005A17.734,17.734,0,0,1-244.395,1234Z" transform="translate(289.005 -1222.913)" fill="#ddf8fd" stroke="#def8fe" stroke-width="1"/>
      <path id="Trazado_709" data-name="Trazado 709" d="M-354.4,1238.094q0,2.943,0,5.886c-.691,0-1.386.05-2.071-.013a2.8,2.8,0,0,1-2.876-2.91,2.814,2.814,0,0,1,2.67-2.911A14.611,14.611,0,0,1-354.4,1238.094Z" transform="translate(365.263 -1229.539)" fill="#ddf7fd" stroke="#def8fe" stroke-width="1"/>
      <path id="Trazado_710" data-name="Trazado 710" d="M-269.335,1329.2q.06,1.074.12,2.148c-.115,3.714-.6,4.192-4.28,4.18-2.509-.008-5.018-.044-7.527-.067a5.067,5.067,0,0,1-.211-4.965,3.713,3.713,0,0,1,2.765-.691C-275.415,1329.732-272.338,1330.026-269.335,1329.2Z" transform="translate(313.805 -1289.992)" fill="#3b2c2c" stroke="#def8fe" stroke-width="1"/>
      <path id="Trazado_711" data-name="Trazado 711" d="M-344.555,1334.714a3.914,3.914,0,0,1,3.715-1.742c2.692.1,5.39.037,8.085.042a4.373,4.373,0,0,1,0,4.945c-2.781.023-5.562.065-8.343.064C-343.673,1338.022-344.356,1337.347-344.555,1334.714Z" transform="translate(355.452 -1292.493)" fill="#3b2c2c" stroke="#def8fe" stroke-width="1"/>
      <path id="Trazado_712" data-name="Trazado 712" d="M-309.5,1336.385q0-2.473,0-4.945l4.212-.055a5.669,5.669,0,0,1,5.876.062q0,2.469,0,4.939Z" transform="translate(332.197 -1290.919)" fill="#3b2c2c" stroke="#def8fe" stroke-width="1"/>
      <path id="Trazado_713" data-name="Trazado 713" d="M-291.142,1310.683l-5.876-.062c0-.627.006-1.254-.015-1.881-.053-1.565.68-2.314,2.258-2.3,2.577.023,5.156-.015,7.733.012,1.5.016,3.063-.242,3.232-1.919.168-1.661-1.1-2.31-2.757-2.345-.961-.021-2.052-.388-1.994-1.673.067-1.466,1.282-1.194,2.216-1.2,2.3-.023,4.6,0,6.9,0q0,5.026-.008,10.053a4.1,4.1,0,0,1-3.541,1.315C-285.71,1310.586-288.427,1310.671-291.142,1310.683Z" transform="translate(323.927 -1270.156)" fill="#3b2c2c" stroke="#def8fe" stroke-width="1"/>
      <path id="Trazado_714" data-name="Trazado 714" d="M-308.645,1255.171c.013,2.518.035,5.037.034,7.555,0,.748.179,1.628-.766,1.978-.842.311-1.334-.374-1.727-.9-1.177-1.569-2.231-1.562-3.406,0-.394.524-.887,1.208-1.728.9-.945-.35-.764-1.23-.765-1.978,0-2.518.021-5.036.034-7.555A10.527,10.527,0,0,1-308.645,1255.171Z" transform="translate(337.183 -1240.313)" fill="#3b2c2c" stroke="#def8fe" stroke-width="1"/>
      <path id="Trazado_715" data-name="Trazado 715" d="M-308.555,1241.946h-8.324q0-3.784,0-7.567h8.328Q-308.555,1238.162-308.555,1241.946Z" transform="translate(337.093 -1227.088)" fill="#3b2c2c" stroke="#def8fe" stroke-width="1"/>
    </g>
  </g>
</svg>
