<svg xmlns="http://www.w3.org/2000/svg" width="46.301" height="37.077" viewBox="0 0 46.301 37.077">
  <g id="Grupo_261" data-name="Grupo 261" transform="translate(0)">
    <g id="Grupo_260" data-name="Grupo 260" transform="translate(0 0)">
      <path id="Trazado_748" data-name="Trazado 748" d="M747.769,849.2c-.066.619.218,1.565-.833,1.538-.888-.023-.716-.88-.716-1.483s-.167-1.429.732-1.468C747.87,847.745,747.738,848.562,747.769,849.2Z" transform="translate(-743.129 -839.967)" fill="#fff"/>
      <path id="Trazado_749" data-name="Trazado 749" d="M757.683,849.23c-.039.6.167,1.46-.7,1.507-1.059.062-.833-.88-.845-1.53-.016-.611-.14-1.433.775-1.417S757.648,848.623,757.683,849.23Z" transform="translate(-749.185 -839.969)" fill="#fff"/>
      <path id="Trazado_750" data-name="Trazado 750" d="M766.827,850.729c-1.028-.012-.771-.946-.79-1.592-.016-.627-.078-1.433.841-1.355.884.074.666.9.709,1.5C767.551,849.892,767.722,850.745,766.827,850.729Z" transform="translate(-755.229 -839.961)" fill="#fff"/>
      <path id="Trazado_751" data-name="Trazado 751" d="M775.956,849.172c-.019-.615-.117-1.433.8-1.394.9.043.7.868.74,1.472-.035.6.16,1.456-.724,1.479C775.723,850.76,775.972,849.818,775.956,849.172Z" transform="translate(-761.287 -839.961)" fill="#fff"/>
      <path id="Trazado_752" data-name="Trazado 752" d="M815.585,849.1c-.031-.565-.07-1.3.685-1.324,1.071-.031.8.892.864,1.511-.031.638.113,1.483-.79,1.441C815.316,850.683,815.62,849.745,815.585,849.1Z" transform="translate(-785.487 -839.962)" fill="#fff"/>
      <path id="Trazado_753" data-name="Trazado 753" d="M779.769,852.225a8.489,8.489,0,1,0,8.312,8.612A8.521,8.521,0,0,0,779.769,852.225Zm-.253,15.429a6.943,6.943,0,1,1,7.02-6.911A6.954,6.954,0,0,1,779.516,867.654Zm.253-15.429a8.489,8.489,0,1,0,8.312,8.612A8.521,8.521,0,0,0,779.769,852.225Zm-.253,15.429a6.943,6.943,0,1,1,7.02-6.911A6.954,6.954,0,0,1,779.516,867.654Zm6.268-16.687c-.934-.584-1.912-1.016-1.588-2.429a.709.709,0,0,0-.751-.9c-.557.012-.736.417-.759.919-.016.308-.058.611-.1,1.04-.911-.459-2.172.125-2.363-1.487a.627.627,0,0,0-1.23-.047c-.191,1.585-1.429,1.086-2.227,1.468-.366-.343-.214-.751-.265-1.117-.078-.522-.358-.857-.9-.767a.7.7,0,0,0-.611.841c.335,1.483-.713,1.927-1.7,2.558a11.5,11.5,0,0,0-4.8,12.953,11.588,11.588,0,0,0,22.254-.136A11.516,11.516,0,0,0,785.784,850.967Zm-6.1,19.774a10.03,10.03,0,1,1,9.947-10.115A10.044,10.044,0,0,1,779.68,870.742Zm.089-18.517a8.489,8.489,0,1,0,8.312,8.612A8.521,8.521,0,0,0,779.769,852.225Zm-.253,15.429a6.943,6.943,0,1,1,7.02-6.911A6.954,6.954,0,0,1,779.516,867.654Z" transform="translate(-756.445 -839.841)" fill="#fff"/>
      <path id="Trazado_754" data-name="Trazado 754" d="M827.048,849.239c-.039.6.167,1.456-.713,1.491-1.055.043-.814-.9-.833-1.549-.016-.611-.121-1.433.794-1.4C827.2,847.806,827.017,848.631,827.048,849.239Z" transform="translate(-791.545 -839.962)" fill="#fff"/>
      <path id="Trazado_755" data-name="Trazado 755" d="M836.953,849.278c-.031.607.14,1.46-.751,1.456-1.028-.008-.775-.942-.794-1.588-.016-.623-.09-1.433.833-1.363C837.129,847.85,836.914,848.679,836.953,849.278Z" transform="translate(-797.593 -839.963)" fill="#fff"/>
      <path id="Trazado_756" data-name="Trazado 756" d="M846.867,849.208c-.035.677.136,1.53-.755,1.526-1.028-.008-.775-.942-.794-1.588-.016-.623-.089-1.433.833-1.363C847.042,847.85,846.809,848.687,846.867,849.208Z" transform="translate(-803.645 -839.963)" fill="#fff"/>
      <path id="Trazado_757" data-name="Trazado 757" d="M781.284,832.35c-.456-.023-1.254.436-1.308-.572-.082-1.456-.993-1.74-2.243-1.74-1.293,0-2.348.191-2.387,1.787-.012.417-.237.471-.592.553a4.117,4.117,0,0,1-4.964-2.044,5.03,5.03,0,0,0-4.948-2.62c-2.371.125-4.758.093-7.133.008a4.533,4.533,0,0,0-4.45,2.426,9.176,9.176,0,0,1-1.339,1.869c-.479.487-1.3.79-1.234-.343.121-2.285-1.215-2.507-2.959-2.4-.9.054-1.8.035-2.7,0-1.316-.043-2.176.467-2.071,1.873.082,1.075-.354,1.234-1.3,1.242-2.8.027-3.352.635-3.352,3.418q-.006,12.819,0,25.638c0,2.62.693,3.325,3.274,3.329q9.928.006,19.852,0t19.856,0c2.6,0,3.309-.7,3.313-3.294q.006-12.819,0-25.637C784.6,833.051,784.021,832.471,781.284,832.35Zm-35.966-1.526c.95.012,1.9.016,2.85,0,.549-.008.962,0,.962.771s-.4.8-.954.779c-.506-.019-1.016,0-1.522,0-.444,0-.891-.031-1.331.008-.662.055-.872-.218-.86-.872S744.834,830.82,745.317,830.824Zm37.769,30.683c.008,1.366-.444,1.764-1.779,1.752-6.615-.055-13.229-.023-19.848-.023-6.548,0-13.1-.043-19.653.031-1.491.016-2.009-.358-1.993-1.935q.111-12.719,0-25.435c-.016-1.674.565-2.071,2.11-2.013,2.823.105,5.653-.043,8.476.058a3.223,3.223,0,0,0,3.438-1.9c1.055-2.355,2.85-3.017,5.3-2.8a46.264,46.264,0,0,0,5.968.016,2.974,2.974,0,0,1,3.177,1.67c1.156,2.538,3.1,3.251,5.762,3.021,2.359-.2,4.75.023,7.125-.066,1.363-.051,1.939.284,1.927,1.8Q782.991,848.6,783.086,861.507Z" transform="translate(-738.302 -827.703)" fill="#fff"/>
      <path id="Trazado_758" data-name="Trazado 758" d="M747.769,849.2c-.066.619.218,1.565-.833,1.538-.888-.023-.716-.88-.716-1.483s-.167-1.429.732-1.468C747.87,847.745,747.738,848.562,747.769,849.2Z" transform="translate(-743.129 -839.967)" fill="#fff"/>
      <path id="Trazado_759" data-name="Trazado 759" d="M757.683,849.23c-.039.6.167,1.46-.7,1.507-1.059.062-.833-.88-.845-1.53-.016-.611-.14-1.433.775-1.417S757.648,848.623,757.683,849.23Z" transform="translate(-749.185 -839.969)" fill="#fff"/>
      <path id="Trazado_760" data-name="Trazado 760" d="M766.827,850.729c-1.028-.012-.771-.946-.79-1.592-.016-.627-.078-1.433.841-1.355.884.074.666.9.709,1.5C767.551,849.892,767.722,850.745,766.827,850.729Z" transform="translate(-755.229 -839.961)" fill="#fff"/>
      <path id="Trazado_761" data-name="Trazado 761" d="M775.956,849.172c-.019-.615-.117-1.433.8-1.394.9.043.7.868.74,1.472-.035.6.16,1.456-.724,1.479C775.723,850.76,775.972,849.818,775.956,849.172Z" transform="translate(-761.287 -839.961)" fill="#fff"/>
      <path id="Trazado_762" data-name="Trazado 762" d="M815.585,849.1c-.031-.565-.07-1.3.685-1.324,1.071-.031.8.892.864,1.511-.031.638.113,1.483-.79,1.441C815.316,850.683,815.62,849.745,815.585,849.1Z" transform="translate(-785.487 -839.962)" fill="#fff"/>
      <path id="Trazado_763" data-name="Trazado 763" d="M779.769,852.225a8.489,8.489,0,1,0,8.312,8.612A8.521,8.521,0,0,0,779.769,852.225Zm-.253,15.429a6.943,6.943,0,1,1,7.02-6.911A6.954,6.954,0,0,1,779.516,867.654Zm.253-15.429a8.489,8.489,0,1,0,8.312,8.612A8.521,8.521,0,0,0,779.769,852.225Zm-.253,15.429a6.943,6.943,0,1,1,7.02-6.911A6.954,6.954,0,0,1,779.516,867.654Zm6.268-16.687c-.934-.584-1.912-1.016-1.588-2.429a.709.709,0,0,0-.751-.9c-.557.012-.736.417-.759.919-.016.308-.058.611-.1,1.04-.911-.459-2.172.125-2.363-1.487a.627.627,0,0,0-1.23-.047c-.191,1.585-1.429,1.086-2.227,1.468-.366-.343-.214-.751-.265-1.117-.078-.522-.358-.857-.9-.767a.7.7,0,0,0-.611.841c.335,1.483-.713,1.927-1.7,2.558a11.5,11.5,0,0,0-4.8,12.953,11.588,11.588,0,0,0,22.254-.136A11.516,11.516,0,0,0,785.784,850.967Zm-6.1,19.774a10.03,10.03,0,1,1,9.947-10.115A10.044,10.044,0,0,1,779.68,870.742Zm.089-18.517a8.489,8.489,0,1,0,8.312,8.612A8.521,8.521,0,0,0,779.769,852.225Zm-.253,15.429a6.943,6.943,0,1,1,7.02-6.911A6.954,6.954,0,0,1,779.516,867.654Z" transform="translate(-756.445 -839.841)" fill="#fff"/>
      <path id="Trazado_764" data-name="Trazado 764" d="M827.048,849.239c-.039.6.167,1.456-.713,1.491-1.055.043-.814-.9-.833-1.549-.016-.611-.121-1.433.794-1.4C827.2,847.806,827.017,848.631,827.048,849.239Z" transform="translate(-791.545 -839.962)" fill="#fff"/>
      <path id="Trazado_765" data-name="Trazado 765" d="M836.953,849.278c-.031.607.14,1.46-.751,1.456-1.028-.008-.775-.942-.794-1.588-.016-.623-.09-1.433.833-1.363C837.129,847.85,836.914,848.679,836.953,849.278Z" transform="translate(-797.593 -839.963)" fill="#fff"/>
      <path id="Trazado_766" data-name="Trazado 766" d="M846.867,849.208c-.035.677.136,1.53-.755,1.526-1.028-.008-.775-.942-.794-1.588-.016-.623-.089-1.433.833-1.363C847.042,847.85,846.809,848.687,846.867,849.208Z" transform="translate(-803.645 -839.963)" fill="#fff"/>
      <path id="Trazado_767" data-name="Trazado 767" d="M839.162,838.174c-.723.336-1.231.5-1.7.015a.347.347,0,0,1,.069-.32A1.223,1.223,0,0,1,839.162,838.174Z" transform="translate(-798.846 -833.798)" fill="#fff"/>
      <path id="Trazado_768" data-name="Trazado 768" d="M779.769,852.225a8.489,8.489,0,1,0,8.312,8.612A8.521,8.521,0,0,0,779.769,852.225Zm-.253,15.429a6.943,6.943,0,1,1,7.02-6.911A6.954,6.954,0,0,1,779.516,867.654Zm.253-15.429a8.489,8.489,0,1,0,8.312,8.612A8.521,8.521,0,0,0,779.769,852.225Zm-.253,15.429a6.943,6.943,0,1,1,7.02-6.911A6.954,6.954,0,0,1,779.516,867.654Zm6.268-16.687c-.934-.584-1.912-1.016-1.588-2.429a.709.709,0,0,0-.751-.9c-.557.012-.736.417-.759.919-.016.308-.058.611-.1,1.04-.911-.459-2.172.125-2.363-1.487a.627.627,0,0,0-1.23-.047c-.191,1.585-1.429,1.086-2.227,1.468-.366-.343-.214-.751-.265-1.117-.078-.522-.358-.857-.9-.767a.7.7,0,0,0-.611.841c.335,1.483-.713,1.927-1.7,2.558a11.5,11.5,0,0,0-4.8,12.953,11.588,11.588,0,0,0,22.254-.136A11.516,11.516,0,0,0,785.784,850.967Zm-6.1,19.774a10.03,10.03,0,1,1,9.947-10.115A10.044,10.044,0,0,1,779.68,870.742Zm.089-18.517a8.489,8.489,0,1,0,8.312,8.612A8.521,8.521,0,0,0,779.769,852.225Zm-.253,15.429a6.943,6.943,0,1,1,7.02-6.911A6.954,6.954,0,0,1,779.516,867.654Z" transform="translate(-756.445 -839.841)" fill="#fff"/>
      <path id="Trazado_769" data-name="Trazado 769" d="M746.936,850.739c-.888-.023-.716-.88-.716-1.483s-.167-1.429.732-1.468c.919-.043.786.775.818,1.413C747.7,849.82,747.987,850.766,746.936,850.739Z" transform="translate(-743.129 -839.967)" fill="#fff"/>
      <path id="Trazado_770" data-name="Trazado 770" d="M756.983,850.737c-1.059.062-.833-.88-.845-1.53-.016-.611-.14-1.433.775-1.417s.736.833.771,1.44C757.644,849.834,757.851,850.69,756.983,850.737Z" transform="translate(-749.185 -839.969)" fill="#fff"/>
      <path id="Trazado_771" data-name="Trazado 771" d="M767.586,849.285c-.035.607.136,1.46-.759,1.444-1.028-.012-.771-.946-.79-1.592-.016-.627-.078-1.433.841-1.355C767.761,847.856,767.543,848.685,767.586,849.285Z" transform="translate(-755.229 -839.961)" fill="#fff"/>
      <path id="Trazado_772" data-name="Trazado 772" d="M776.774,850.729c-1.051.031-.8-.911-.818-1.557-.019-.615-.117-1.433.8-1.394.9.043.7.868.74,1.472C777.463,849.853,777.657,850.706,776.774,850.729Z" transform="translate(-761.287 -839.961)" fill="#fff"/>
      <path id="Trazado_773" data-name="Trazado 773" d="M817.134,849.289c-.031.638.113,1.483-.79,1.441-1.028-.047-.724-.985-.759-1.627-.031-.565-.07-1.3.685-1.324C817.341,847.748,817.068,848.67,817.134,849.289Z" transform="translate(-785.487 -839.962)" fill="#fff"/>
      <path id="Trazado_774" data-name="Trazado 774" d="M826.335,850.73c-1.055.043-.814-.9-.833-1.549-.016-.611-.121-1.433.794-1.4.9.027.72.853.751,1.46C827.009,849.838,827.215,850.695,826.335,850.73Z" transform="translate(-791.545 -839.962)" fill="#fff"/>
      <path id="Trazado_775" data-name="Trazado 775" d="M836.2,850.734c-1.028-.008-.775-.942-.794-1.588-.016-.623-.09-1.433.833-1.363.888.066.673.9.712,1.495C836.922,849.886,837.094,850.738,836.2,850.734Z" transform="translate(-797.593 -839.963)" fill="#fff"/>
      <path id="Trazado_776" data-name="Trazado 776" d="M846.867,849.208c-.035.677.136,1.53-.755,1.526-1.028-.008-.775-.942-.794-1.588-.016-.623-.089-1.433.833-1.363C847.042,847.85,846.809,848.687,846.867,849.208Z" transform="translate(-803.645 -839.963)" fill="#fff"/>
      <path id="Trazado_777" data-name="Trazado 777" d="M784.629,859.508a8.489,8.489,0,1,0,8.312,8.612A8.521,8.521,0,0,0,784.629,859.508Zm-.253,15.429a6.943,6.943,0,1,1,7.02-6.911A6.954,6.954,0,0,1,784.375,874.937Z" transform="translate(-761.305 -847.124)" fill="#fff"/>
      <path id="Trazado_778" data-name="Trazado 778" d="M784.629,859.508a8.489,8.489,0,1,0,8.312,8.612A8.521,8.521,0,0,0,784.629,859.508Zm-.253,15.429a6.943,6.943,0,1,1,7.02-6.911A6.954,6.954,0,0,1,784.375,874.937Z" transform="translate(-761.305 -847.124)" fill="#fff"/>
    </g>
  </g>
</svg>
