<svg xmlns="http://www.w3.org/2000/svg" width="49.662" height="49.664" viewBox="0 0 49.662 49.664">
  <g id="Grupo_262" data-name="Grupo 262" transform="translate(1 1)">
    <path id="Trazado_779" data-name="Trazado 779" d="M-852.225,1228.591a23.861,23.861,0,0,1-23.785,23.852,23.862,23.862,0,0,1-23.877-23.872,23.853,23.853,0,0,1,23.84-23.792A23.853,23.853,0,0,1-852.225,1228.591Z" transform="translate(899.887 -1204.779)" fill="none" stroke="#fefefe" stroke-width="2"/>
    <path id="Trazado_780" data-name="Trazado 780" d="M-822.979,1246.855c-.077.274-.157.606-.264.928q-3.46,10.41-6.927,20.818a5.277,5.277,0,0,1-.2.536c-.354.777-.9,1.3-1.793.939a1.33,1.33,0,0,1-.785-1.871c.8-2.382,1.582-4.772,2.377-7.157q2.4-7.21,4.8-14.418c.257-.775.7-1.282,1.58-1.17C-823.431,1245.558-823.079,1246.061-822.979,1246.855Z" transform="translate(851.886 -1233.991)" fill="#fefefe"/>
    <path id="Trazado_781" data-name="Trazado 781" d="M-784.093,1272.973a1.357,1.357,0,0,1-.519,1.1c-1.734,1.612-3.465,3.227-5.209,4.828-.672.617-1.438.813-2.12.075s-.425-1.464.26-2.092c1.211-1.109,2.4-2.242,3.634-3.325.484-.424.543-.692.022-1.144-1.211-1.051-2.362-2.169-3.552-3.244-.7-.635-1.08-1.325-.387-2.175.536-.657,1.362-.594,2.2.16,1.671,1.511,3.324,3.041,4.984,4.564A1.567,1.567,0,0,1-784.093,1272.973Z" transform="translate(822.634 -1249.149)" fill="#fefefe"/>
    <path id="Trazado_782" data-name="Trazado 782" d="M-860.968,1266.534a1.43,1.43,0,0,1,1.47.827,1.279,1.279,0,0,1-.371,1.553c-1.221,1.152-2.441,2.308-3.712,3.4-.586.5-.581.81,0,1.31,1.216,1.043,2.371,2.155,3.552,3.239.677.621.965,1.347.273,2.088-.675.723-1.413.56-2.106-.083-1.706-1.583-3.438-3.138-5.135-4.731a1.378,1.378,0,0,1,0-2.338c1.7-1.592,3.423-3.154,5.139-4.727C-861.546,1266.789-861.224,1266.516-860.968,1266.534Z" transform="translate(876.726 -1249.139)" fill="#fefefe"/>
  </g>
</svg>
