<svg xmlns="http://www.w3.org/2000/svg" width="669.698" height="499" viewBox="0 0 669.698 499">
  <g id="contactinfo" transform="translate(0)">
    <rect id="Rectángulo_421" data-name="Rectángulo 421" width="407.949" height="1.732" transform="translate(74.827 470.422)" fill="#3f3d56"/>
    <path id="Trazado_819" data-name="Trazado 819" d="M539.671,425.632s-8.658,38.96,8.658,32.033,6.926-33.765,6.926-33.765Z" transform="translate(-248.501 -193.546)" fill="#ffb9b9"/>
    <path id="Trazado_820" data-name="Trazado 820" d="M757.285,443.964s20.779,25.107,7.792,30.3S745.165,450.89,746.9,448.293,757.285,443.964,757.285,443.964Z" transform="translate(-304.217 -198.892)" fill="#ffb9b9"/>
    <circle id="Elipse_267" data-name="Elipse 267" cx="25.973" cy="25.973" r="25.973" transform="translate(377.747 15.644)" fill="#ffb9b9"/>
    <path id="Trazado_821" data-name="Trazado 821" d="M522.531,70.3l-3.463,26.839,28.57,10.389,6.061-30.3Z" transform="translate(-138.291 -18.731)" fill="#ffb9b9"/>
    <path id="Trazado_822" data-name="Trazado 822" d="M657.87,211.411s-14.677-7.246-17.728-13.146l-6.514,6.22s-46.751-4.329-53.678,19.047-.866,108.221-.866,108.221-9.523,38.094-6.926,38.96,34.631,16.45,79.651,7.792c0,0,19.913-3.463,23.376-.866s-1.732-41.557-1.732-41.557,34.631-77.919,28.57-87.443-32.9-29.436-32.9-29.436l1.732-9.523S658.736,214.874,657.87,211.411Z" transform="translate(-257.614 -133.432)" fill="#cfcce0"/>
    <path id="Trazado_823" data-name="Trazado 823" d="M576.907,224.447s-15.584,7.792-18.181,19.913-26.839,112.55-24.241,118.61,1.731,13.852,1.731,13.852l22.51-2.6s-4.329-6.06-1.732-8.658,5.195-11.255,3.463-14.718-3.463,2.6,6.06-8.658S597.686,227.91,576.907,224.447Z" transform="translate(-247.644 -140.408)" fill="#cfcce0"/>
    <path id="Trazado_824" data-name="Trazado 824" d="M731.266,264.574s7.359.433,9.091,12.554,4.762,87.01,4.762,87.01,11.255,24.242,6.926,27.7-1.732,8.658-1.732,8.658l-15.584,4.329-33.765-52.812Z" transform="translate(-292.05 -151.098)" fill="#cfcce0"/>
    <path id="Trazado_825" data-name="Trazado 825" d="M571.986,428.622s-5.195.866-5.195,19.913-9.523,77.919-3.463,87.443,6.926,95.235,6.926,95.235,16.45,6.926,30.3-15.584l1.732-12.121,3.463-58.872,13.852-73.59,19.047,81.383s-2.6,97.832,6.926,97.832,27.7-7.792,27.7-7.792,4.329-8.658,2.6-12.987-3.463-3.463-1.732-6.926,4.329-93.5,4.329-93.5-3.463-92.637-7.792-95.235S571.986,428.622,571.986,428.622Z" transform="translate(-254.843 -194.804)" fill="#2f2e41"/>
    <path id="Trazado_826" data-name="Trazado 826" d="M566.379,695.037l-13.852,14.718S527.42,733.131,549.064,734s33.765-13.852,33.765-15.584.866-7.792,6.926-7.792,20.778-14.718,17.315-20.778-13.852-8.658-13.852-8.658Z" transform="translate(-249.236 -262.093)" fill="#2f2e41"/>
    <path id="Trazado_827" data-name="Trazado 827" d="M675.1,722.513s-10.389,20.779-4.329,25.107a72.859,72.859,0,0,1,7.792,6.06s5.195-.866,4.329,6.926,31.168,12.121,32.9,6.06.866-18.181-2.6-21.644-13.852-27.7-13.852-27.7S688.085,704.332,675.1,722.513Z" transform="translate(-283.499 -270.522)" fill="#2f2e41"/>
    <path id="Trazado_828" data-name="Trazado 828" d="M708.814,130.647l4.893-.7s-6.811-12.537-19.995-14.813l4.628-3.123s-8.042-5.747-18.434,1.64c-5.463,3.883-11.806,8.467-16.472,14.236l-4.773-1.166.92,4.873-8.044,2.682,7.349.961a25.227,25.227,0,0,0-1.972,7.228,9.69,9.69,0,0,0,1.942,7h0s8.323-10.09,8.759-11.874l-1.09,4.461s5.438-2.925,6.092-5.6l1.668,3.716,2.415-4.61,13.791,8.57-1.45-4.609,8.992,3.616-2.447-5.8s9.117,8.373,8.323,13.379a24.252,24.252,0,0,0,1.153,10.408S718.928,140.209,708.814,130.647Z" transform="translate(-278.881 -109.886)" fill="#2f2e41"/>
    <rect id="Rectángulo_422" data-name="Rectángulo 422" width="138.646" height="1.659" transform="translate(531.053 315.035)" fill="#3f3d56"/>
    <rect id="Rectángulo_423" data-name="Rectángulo 423" width="33.42" height="33.42" transform="translate(118.03 442.867)" fill="#cfcce0"/>
    <path id="Trazado_829" data-name="Trazado 829" d="M331.223,740.381H296.044V705.2h35.179Zm-33.42-1.759h31.661V706.961H297.8Z" transform="translate(-184.17 -268.491)" fill="#3f3d56"/>
    <rect id="Rectángulo_424" data-name="Rectángulo 424" width="22.677" height="21.892" transform="matrix(0.933, -0.361, 0.361, 0.933, 166.867, 159.029)" fill="#f2f2f2"/>
    <path id="Trazado_830" data-name="Trazado 830" d="M394.289,333.353l-22.263,8.61-8.312-21.492,22.263-8.61Zm-21.566,7.105,20.037-7.749-7.481-19.343-20.037,7.749Z" transform="translate(-202.199 -163.697)" fill="#3f3d56"/>
    <rect id="Rectángulo_425" data-name="Rectángulo 425" width="22.677" height="21.892" transform="translate(569.279 378.311) rotate(71.027)" fill="#f2f2f2"/>
    <path id="Trazado_831" data-name="Trazado 831" d="M900.97,648.488l-7.76-22.574L915,618.422,922.763,641Zm-6.283-21.819,6.985,20.316,19.613-6.743L914.3,619.925Z" transform="translate(-343.268 -245.371)" fill="#3f3d56"/>
    <path id="Trazado_832" data-name="Trazado 832" d="M278.657,509.506c12.4.266,22.264,9.252,22.264,9.252s-10.24,8.555-22.641,8.289-22.264-9.252-22.264-9.252S266.258,509.239,278.657,509.506Z" transform="translate(-173.506 -216.352)" fill="#fff"/>
    <path id="Trazado_833" data-name="Trazado 833" d="M195.9,445c11.2,5.322,24.049,1.713,24.049,1.713s-5.317-12.238-16.52-17.561-24.049-1.713-24.049-1.713S184.695,439.673,195.9,445Z" transform="translate(-153.087 -194.169)" fill="#fff"/>
    <path id="Trazado_834" data-name="Trazado 834" d="M195.618,444.556c12.351-1.129,23.163,6.692,23.163,6.692s-9.214,9.651-21.566,10.78-23.163-6.692-23.163-6.692S183.266,445.685,195.618,444.556Z" transform="translate(-151.669 -199.02)" fill="#3f3d56"/>
    <path id="Trazado_835" data-name="Trazado 835" d="M265.125,439.7c-1.184,12.346,6.589,23.192,6.589,23.192s9.692-9.171,10.876-21.518S276,418.18,276,418.18,266.309,427.351,265.125,439.7Z" transform="translate(-175.9 -192.022)" fill="#3f3d56"/>
    <path id="Trazado_836" data-name="Trazado 836" d="M342.788,545.441c-6.478,10.577-4.25,23.733-4.25,23.733s12.733-3.992,19.211-14.568S362,530.873,362,530.873,349.266,534.864,342.788,545.441Z" transform="translate(-195.393 -222.046)" fill="#3f3d56"/>
    <path id="Trazado_837" data-name="Trazado 837" d="M295.528,639.786l.944-.638a29.578,29.578,0,0,1-5.22-16.4c.026-8.578,4.24-16.513,8.315-24.186.756-1.424,1.51-2.844,2.235-4.263a93.056,93.056,0,0,0,7.238-18.169c6.321-23.489.1-51.2-16.646-74.132-13.283-18.19-33.084-34.1-60.534-48.628l-.533,1.007c27.293,14.448,46.967,30.245,60.146,48.293,16.543,22.654,22.7,50,16.466,73.163a91.948,91.948,0,0,1-7.151,17.947c-.723,1.413-1.474,2.828-2.228,4.247-4.14,7.8-8.421,15.857-8.448,24.717A30.729,30.729,0,0,0,295.528,639.786Z" transform="translate(-166.928 -201.397)" fill="#3f3d56"/>
    <circle id="Elipse_268" data-name="Elipse 268" cx="10.824" cy="10.824" r="10.824" transform="translate(0 231.819)" fill="#3f3d56"/>
    <path id="Trazado_838" data-name="Trazado 838" d="M767.441,366.871,628.109,316.828l24.875-69.259,86.755-21.276,52.578,71.319Z" transform="translate(-167.342 -60.289)" fill="#2f2e41"/>
    <path id="Trazado_839" data-name="Trazado 839" d="M900.759,457.653,796.635,417.962c27.031-36.207,39.118-61.747,39.127-101.937l104.124,39.691C915.7,390.077,905.58,415.909,900.759,457.653Z" transform="translate(-317.538 -164.806)" fill="#f2f2f2"/>
    <rect id="Rectángulo_426" data-name="Rectángulo 426" width="57.73" height="2.685" transform="translate(537.471 175.776) rotate(20.866)" fill="#3f3d56"/>
    <rect id="Rectángulo_427" data-name="Rectángulo 427" width="57.73" height="2.685" transform="translate(533.646 185.812) rotate(20.866)" fill="#3f3d56"/>
    <rect id="Rectángulo_428" data-name="Rectángulo 428" width="57.73" height="2.685" transform="translate(529.82 195.848) rotate(20.866)" fill="#3f3d56"/>
    <rect id="Rectángulo_429" data-name="Rectángulo 429" width="57.73" height="2.685" transform="translate(525.995 205.884) rotate(20.866)" fill="#3f3d56"/>
    <rect id="Rectángulo_430" data-name="Rectángulo 430" width="57.73" height="2.685" transform="translate(522.169 215.92) rotate(20.866)" fill="#3f3d56"/>
    <rect id="Rectángulo_431" data-name="Rectángulo 431" width="57.73" height="2.685" transform="translate(518.344 225.956) rotate(20.866)" fill="#3f3d56"/>
    <rect id="Rectángulo_432" data-name="Rectángulo 432" width="57.73" height="2.685" transform="translate(514.518 235.992) rotate(20.866)" fill="#3f3d56"/>
    <rect id="Rectángulo_433" data-name="Rectángulo 433" width="57.73" height="2.685" transform="translate(510.692 246.028) rotate(20.866)" fill="#3f3d56"/>
    <path id="Trazado_840" data-name="Trazado 840" d="M763.053,383.561,623.721,333.518,651.815,255.3l58.839,55.17,80.494-5.126Z" transform="translate(-166.173 -68.017)" fill="#3f3d56"/>
    <path id="Trazado_841" data-name="Trazado 841" d="M691.916,370.364l-69.474-24.953,16.928-47.135,1.381.5-16.432,45.753,68.093,24.457Z" transform="translate(-165.832 -79.468)" fill="#fff"/>
    <rect id="Rectángulo_434" data-name="Rectángulo 434" width="21.644" height="8.658" transform="translate(481.018 233.454) rotate(19.756)" fill="#fff"/>
    <path id="Trazado_842" data-name="Trazado 842" d="M329.916,619.855,220.865,619.8l.856-61.222,54.2,24.359L330.772,560.1Z" transform="translate(-58.843 -148.817)" fill="#3f3d56"/>
    <rect id="Rectángulo_435" data-name="Rectángulo 435" width="15.945" height="6.378" transform="translate(170.705 443.035) rotate(0.801)" fill="#fff"/>
    <path id="Trazado_843" data-name="Trazado 843" d="M331.343,559.952l-55.121,28.1-54.581-28.1v-1.621h109.7Z" transform="translate(-59.05 -148.752)" fill="#fff"/>
    <ellipse id="Elipse_269" data-name="Elipse 269" cx="6.624" cy="18.339" rx="6.624" ry="18.339" transform="translate(552.537 172.606) rotate(-69.134)" fill="#fff"/>
    <path id="Trazado_844" data-name="Trazado 844" d="M954.065,211.98a27.876,27.876,0,0,0-34.9,18.342c-4.571,14.7,7.887,68.52,7.887,68.52s40.78-37.264,45.351-51.966A27.876,27.876,0,0,0,954.065,211.98Zm-12.2,39.227a13.2,13.2,0,1,1,16.53-8.688A13.2,13.2,0,0,1,941.867,251.207Z" transform="translate(-349.916 -136.749)" fill="#fff"/>
  </g>
</svg>
