<svg xmlns="http://www.w3.org/2000/svg" width="208" height="222.929" viewBox="0 0 208 222.929">
  <g id="GD001" transform="translate(-48 -18.146)">
    <path id="Trazado_404" data-name="Trazado 404" d="M234.608,195.7H55.464V98.661a11.209,11.209,0,0,1,11.2-11.2h82.108V80H66.661A18.682,18.682,0,0,0,48,98.661v115.7a18.682,18.682,0,0,0,18.661,18.661h46.59l-8,18.661h-16.2a11.2,11.2,0,0,0,0,22.393H201.019a11.2,11.2,0,0,0,0-22.393h-16.2l-8-18.661h46.59a18.682,18.682,0,0,0,18.661-18.661V150.911h-7.464Zm-29.857,67.179a3.736,3.736,0,0,1-3.732,3.732H89.054a3.732,3.732,0,1,1,0-7.464H201.019a3.736,3.736,0,0,1,3.732,3.732ZM176.7,251.68H113.374l8-18.661H168.7Zm46.714-26.125H66.661a11.209,11.209,0,0,1-11.2-11.2v-11.2H234.608v11.2a11.209,11.209,0,0,1-11.2,11.2Z" transform="translate(0 -32.998)" fill="#fafafa"/>
    <path id="Trazado_405" data-name="Trazado 405" d="M248,360h7.464v7.464H248Z" transform="translate(-106.696 -182.372)" fill="#fafafa"/>
    <path id="Trazado_406" data-name="Trazado 406" d="M375.341,60.616a3.732,3.732,0,0,0,1.054-4.173L371.93,44.834a3.732,3.732,0,0,0-3.579-2.391l-10.16.259L353.727,38l.779-10.133a3.732,3.732,0,0,0-2.206-3.7l-11.367-5.051a3.732,3.732,0,0,0-4.222.84l-7,7.367-6.479-.165-6.616-7.716a3.732,3.732,0,0,0-4.173-1.053L300.834,22.86a3.732,3.732,0,0,0-2.391,3.579L298.7,36.6,294,41.064l-10.133-.779a3.732,3.732,0,0,0-3.7,2.205l-5.052,11.368a3.732,3.732,0,0,0,.84,4.221l7.367,7-.166,6.479-7.715,6.615a3.732,3.732,0,0,0-1.054,4.173l4.465,11.609a3.75,3.75,0,0,0,3.579,2.391l10.16-.259,4.464,4.7-.779,10.133a3.732,3.732,0,0,0,2.206,3.7l11.366,5.051a3.732,3.732,0,0,0,4.222-.84l7-7.367,6.479.165,6.616,7.716a3.732,3.732,0,0,0,4.173,1.053l11.609-4.465a3.732,3.732,0,0,0,2.391-3.579l-.259-10.159,4.7-4.465,10.135.779a3.732,3.732,0,0,0,3.7-2.205l5.051-11.366a3.732,3.732,0,0,0-.84-4.221l-7.367-7,.166-6.479ZM361.117,77.979l6.661,6.33-2.914,6.552-9.161-.7a3.724,3.724,0,0,0-2.856,1.016l-7.1,6.749a3.735,3.735,0,0,0-1.16,2.8l.233,9.185-6.693,2.574-5.981-6.975a3.732,3.732,0,0,0-2.738-1.3l-9.8-.25h-.093a3.732,3.732,0,0,0-2.706,1.161l-6.329,6.66-6.549-2.914.7-9.16a3.732,3.732,0,0,0-1.016-2.856l-6.75-7.1a3.707,3.707,0,0,0-2.8-1.16l-9.185.233-2.574-6.693,6.974-5.98a3.732,3.732,0,0,0,1.3-2.738l.25-9.8a3.732,3.732,0,0,0-1.16-2.8l-6.662-6.327,2.914-6.552,9.161.7a3.741,3.741,0,0,0,2.856-1.016l7.1-6.749a3.735,3.735,0,0,0,1.16-2.8l-.233-9.185,6.693-2.574,5.981,6.975a3.732,3.732,0,0,0,2.735,1.3l9.8.25a3.68,3.68,0,0,0,2.8-1.16l6.329-6.661,6.552,2.914-.7,9.16a3.732,3.732,0,0,0,1.016,2.857l6.75,7.1a3.712,3.712,0,0,0,2.8,1.16l9.185-.233,2.574,6.693-6.973,5.978a3.732,3.732,0,0,0-1.3,2.738l-.251,9.8a3.732,3.732,0,0,0,1.16,2.8Z" transform="translate(-120.644)" fill="#fafafa"/>
    <path id="Trazado_407" data-name="Trazado 407" d="M344.079,72.831a26.564,26.564,0,1,0,34.33,15.258,26.564,26.564,0,0,0-34.33-15.258Zm16.394,42.62a19.1,19.1,0,1,1,10.969-24.685,19.1,19.1,0,0,1-10.969,24.685Z" transform="translate(-148.864 -28.23)" fill="#fafafa"/>
    <path id="Trazado_408" data-name="Trazado 408" d="M105.568,144.736l-8.558-8.557,8.558-8.557-5.278-5.278-11.2,11.2a3.732,3.732,0,0,0,0,5.278l11.2,11.2Z" transform="translate(-21.339 -55.587)" fill="#fafafa"/>
    <path id="Trazado_409" data-name="Trazado 409" d="M183.621,150.014l11.2-11.2a3.732,3.732,0,0,0,0-5.278l-11.2-11.2-5.278,5.278,8.558,8.557-8.558,8.557Z" transform="translate(-69.535 -55.587)" fill="#fafafa"/>
    <path id="Trazado_410" data-name="Trazado 410" d="M0,0H30.776V7.464H0Z" transform="translate(89.181 94.654) rotate(-75.936)" fill="#fafafa"/>
    <path id="Trazado_411" data-name="Trazado 411" d="M88,200h7.464v7.464H88Z" transform="translate(-21.339 -97.015)" fill="#fafafa"/>
    <path id="Trazado_412" data-name="Trazado 412" d="M120,200h70.911v7.464H120Z" transform="translate(-38.411 -97.015)" fill="#fafafa"/>
    <path id="Trazado_413" data-name="Trazado 413" d="M88,232h7.464v7.464H88Z" transform="translate(-21.339 -114.087)" fill="#fafafa"/>
    <path id="Trazado_414" data-name="Trazado 414" d="M120,232h82.108v7.464H120Z" transform="translate(-38.411 -114.087)" fill="#fafafa"/>
    <path id="Trazado_415" data-name="Trazado 415" d="M88,264h7.464v7.464H88Z" transform="translate(-21.339 -131.158)" fill="#fafafa"/>
    <path id="Trazado_416" data-name="Trazado 416" d="M120,264h93.3v7.464H120Z" transform="translate(-38.411 -131.158)" fill="#fafafa"/>
    <path id="Trazado_417" data-name="Trazado 417" d="M88,296h7.464v7.464H88Z" transform="translate(-21.339 -148.229)" fill="#fafafa"/>
    <path id="Trazado_418" data-name="Trazado 418" d="M120,296H231.965v7.464H120Z" transform="translate(-38.411 -148.229)" fill="#fafafa"/>
    <path id="Trazado_419" data-name="Trazado 419" d="M376,296h7.464v7.464H376Z" transform="translate(-174.981 -148.229)" fill="#fafafa"/>
    <path id="Trazado_420" data-name="Trazado 420" d="M368,264h7.464v7.464H368Z" transform="translate(-170.713 -131.158)" fill="#fafafa"/>
    <path id="Trazado_421" data-name="Trazado 421" d="M336,264h7.464v7.464H336Z" transform="translate(-153.642 -131.158)" fill="#fafafa"/>
    <path id="Trazado_422" data-name="Trazado 422" d="M408,296h7.464v7.464H408Z" transform="translate(-192.053 -148.229)" fill="#fafafa"/>
  </g>
</svg>
