<svg xmlns="http://www.w3.org/2000/svg" width="43" height="43" viewBox="0 0 43 43">
  <path id="pointer" d="M-33.088,15.954c2.416.287,5.02,2.187,5.958,2.968V1.4c0-1.8,1.84-3.258,4-3.258s4,1.458,4,3.258V11.5a.925.925,0,1,0,1.838.172c.432-2.673,5.038-3.028,5.386.665a.878.878,0,0,0,1.732.045c.652-2.407,5-2.43,5.516,1.263.132.965,1.592,1.16,1.7.057s.562-1.557,1.214-1.557c2.2,0,4.618,3.365,4.618,7.35,0,7.158-6,7.177-6,18.65h-20c-.664-6.57-6.924-12.385-12.542-17.068a3.538,3.538,0,0,1-1.458-2.607C-37.13,16.916-35.612,15.653-33.088,15.954Z" transform="translate(38.63 3.359)" fill="none" stroke="#fff" stroke-miterlimit="10" stroke-width="3"/>
</svg>
