<svg xmlns="http://www.w3.org/2000/svg" viewBox="0 0 223.94 223.94"><defs><style>.cls-1{fill:#4c8900;}</style></defs><title>succefulllimg</title><g id="Capa_2" data-name="Capa 2"><g id="Layer_1" data-name="Layer 1"><path class="cls-1" d="M220.36,83.24A112,112,0,1,1,83.24,4.08,112.09,112.09,0,0,1,220.36,83.24ZM137.53,216.07A105.23,105.23,0,1,0,8.65,141.66,105.34,105.34,0,0,0,137.53,216.07Z" transform="translate(-0.25 -0.25)"/><path class="cls-1" d="M198.68,90.74a90.9,90.9,0,0,1-9.14,69.44l-5.82-3.36A84.79,84.79,0,0,0,152.69,41l3.36-5.82A90.86,90.86,0,0,1,198.68,90.74Z" transform="translate(-0.25 -0.25)"/><polygon class="cls-1" points="172.73 66.02 109.82 174.98 51.21 141.14 68.27 111.59 97.33 128.37 143.17 48.96 172.73 66.02"/><path class="cls-1" d="M67.9,187.85l-3.36,5.82a91.51,91.51,0,0,1-33.49-125L36.87,72a84.79,84.79,0,0,0,31,115.82Z" transform="translate(-0.25 -0.25)"/></g></g></svg>