<svg xmlns="http://www.w3.org/2000/svg" width="1920" height="34.855" viewBox="0 0 1920 34.855">
  <path id="Trazado_215" data-name="Trazado 215" d="M1920,56.164l-8.267-2.495c-8.133-2.542-25.067-7.461-41.067-11.877-16.267-4.369-33.333-8.117-49.333-9.991-16.267-1.874-32-1.874-49.333-1.253-16.133.668-32,1.839-49.333,5.622-16,3.713-32,10.038-49.333,10-15.867.035-32-6.29-49.333-10.624-15.733-4.334-32-6.911-48-3.748-17.067,3.163-33.333,11.83-49.333,16.867-16.933,5.037-33.333,6.208-49.333,7.5-16.8,1.288-33.333,2.46-49.333-2.495-16.667-5-33.333-16.246-49.333-19.994-16.667-3.748-33.333,0-49.333.621-16.533.668-33.333-1.909-49.333-.621-16.4,1.288-33.333,6.208-49.333,9.991a270.751,270.751,0,0,1-49.333,6.876c-16.267.586-32-.586-49.333-1.253-16.133-.621-32-.621-49.333-.621-16,0-32,0-49.333-.621-15.867-.668-32-1.839-49.333-1.253-15.733.586-32,3.163-48,1.874-17.067-1.288-33.333-6.208-49.333-6.876-16.933-.621-33.333,3.127-49.333,3.748-16.8.668-33.333-1.909-49.333-.621-16.667,1.288-33.333,6.208-49.333,7.5C722,53.7,705.333,51.127,689.333,46.172,672.8,41.171,656,33.674,640,34.928c-16.4,1.206-33.333,11.28-49.333,14.36-16.267,3.127-33.333-.621-49.333-3.748-16.266-3.081-32-5.657-49.333-5.622-16.133-.035-32,2.542-49.333,3.748a429.253,429.253,0,0,1-49.333.633A470.752,470.752,0,0,1,344,39.917c-15.733-2.495-32-6.243-48-9.371-17.067-3.081-33.333-5.657-49.333-2.495-16.933,3.163-33.333,11.83-49.333,13.119C180.533,42.459,164,36.134,148,34.3c-16.667-1.909-33.333.668-49.333,4.381C82,42.459,65.333,47.379,49.333,49.921,32.8,52.415,16,52.415,8,52.415H0V22.43H1920Z" transform="translate(0 -22.43)" fill="#312727"/>
</svg>
