<svg xmlns="http://www.w3.org/2000/svg" width="1920" height="167.375" viewBox="0 0 1920 167.375">
  <path id="city" d="M1950.51,372.449V325.074h-4.865V294.7h-8.757v-7.75h-22.054v-19.5H1900.24V254.7h7.784v-2.875h-52.541V232.7h-15.567v-7.625h5.189v-12.5l-10.7-3-13.3,3.125v12.5h5.838v7.5h-13.622v-13.25H1775.7V232.7h-9.405v74.125H1713.1v26.5h-13.946v6.5H1672.24v-28h-6.811v-5.875H1642.4v5.75h-9.73v-3h-4.54v-3.625l-10.054-2.25-9.081,1.75-7.784-1.75-8.432,1.375v7.75h-4.216V340.2h-5.513V325.574h-7.135v-31h-8.432v-6.75h-31.135V294.7h-31.784v48h-14.595V325.2h-5.838V294.574h-10.378v-6.625h-9.405v-4.625l-8.108-1.625-10.054,1.75v3.5h-10.7v7.625h-18.811v1.75h-7.784v15.5h-6.811v-80.25H1391.05V228.2h-25.3v-8.75h-14.27v-5.375l-11.676-2.375-11.676,2.25v3.25H1316.78v11.75h-12.649v49.5h-24.973v8h-19.784v-9.625l-46.054,10.625h-11.027v28h-23.676v2.875h-12.973v6.125h-8.757V318.7h-28.541v21.125h-6.811v-27.75h-4.865V294.7h-5.514V282.2l-9.081-4.625V269.2l-8.432-1.625-9.405,2v8l-6.487,4.75v-8.25H1045V282.2h-4.541v29.625h-5.189v13.125h-6.811V311.824h-3.568v-17.25h-8.757V288.2H984.023v6.375l-31.784-.125v8.625l-5.514,1.375v7.375H930.51v-61.25h-7.784V239.949H891.915v10.5H859.807v62.5H849.1V269.324h2.919v-2.875H840.348v-9.375H827.7v-5.75l-12.973-2.25L803.05,251.2v5.875H786.834v9.75H761.861v2.625H750.186v48.625H743.05V294.449H730.4V290.2h4.865v-6.875l-8.757-1.875-9.73,1.875V290.2h4.865v4.375H709.969v-8.125H697.321V252.074h-33.73v-11H631.483v11h-5.513V261.2H604.24v9.875h-5.513v-48.75H577.645V209.949l-12.973-4.875-12.324,4.875v12.5H532.564v3.25h-9.405V339.824h-46.7v-27.75h-6.811V262.949h-9.081v-2.5H441.753V250.074H430.726v-5.688l-8.432-2.375-8.757,2.375v7.063h-9.73v9.25h-13.3v83.75H382.4v-30.5h1.946v-2.125h-7.784v-5.75H352.24v5.75H338.618v-6.063s-1.134-2.937-9.566-2.937-9.405,1.937-9.405,1.937-1.622-1.812-10.218-1.812c-7.46,0-8.108,2.812-8.108,2.812v6.188h-5.513v1.75h2.919v44.125H289V313.7h2.919v-1.75h-7.459v-6.125H260.78V311.2H246.186v-6.25s-1.622-2-9.081-2c-6.647,0-9.081,2-9.081,2s-1.3-2.063-8.918-2.063c-5.838,0-8.6,1.938-8.6,1.938v7h-3.892v28.125h-6.811V255.824H202.4V253.2H191.7v-9.75H154.4v9.625H116.78v86.875H100.564v-43.5h2.595v-2H94.078V287.2H65.861v7.25H53.537v-4.125H56.78v-7l-8.432-2-10.378,2.25v6.875h3.243v4.125H30.51v77.75H1950.186" transform="translate(-30.51 -205.074)" fill="#a88868"/>
</svg>
