<svg xmlns="http://www.w3.org/2000/svg" width="47.579" height="53.959" viewBox="0 0 47.579 53.959">
  <g id="Css3logo" transform="translate(-0.445 -70.766)" opacity="0.61">
    <path id="Trazado_920" data-name="Trazado 920" d="M24.205,124.725l-19.43-5.394L.445,70.766H48.024l-4.334,48.558-19.484,5.4Z" transform="translate(0)" fill="#264de4"/>
    <path id="Trazado_921" data-name="Trazado 921" d="M143.744,133.552l3.7-41.495H128v45.86l15.744-4.365Z" transform="translate(-103.766 -17.321)" fill="#2965f1"/>
    <path id="Trazado_922" data-name="Trazado 922" d="M53.669,188.636l.534,5.956H67.532v-5.956Z" transform="translate(-43.297 -95.887)" fill="#ebebeb"/>
    <path id="Trazado_923" data-name="Trazado 923" d="M47.917,124l.541,5.956H62.853V124Z" transform="translate(-38.618 -43.302)" fill="#ebebeb"/>
    <path id="Trazado_924" data-name="Trazado 924" d="M71.021,243.077l-.026.007-6.634-1.791-.424-4.75H57.958l.834,9.352,12.2,3.387.027-.008v-6.2Z" transform="translate(-46.787 -134.859)" fill="#ebebeb"/>
    <path id="Trazado_928" data-name="Trazado 928" d="M141.735,136.051,142.811,124H127.89v5.956h8.393l-.542,6.1H127.89v5.956h7.335l-.692,7.725-6.643,1.793v6.2l12.211-3.384.09-1.006,1.4-15.681.145-1.6Z" transform="translate(-103.676 -43.302)" fill="#fff"/>
  </g>
</svg>
