<svg width="247" height="223" viewBox="0 0 247 223" fill="none" xmlns="http://www.w3.org/2000/svg">
<path d="M196.573 138.309C196.958 138.309 197.339 138.234 197.695 138.086C198.05 137.939 198.374 137.723 198.646 137.451C198.918 137.179 199.134 136.856 199.281 136.5C199.428 136.144 199.504 135.763 199.504 135.378V99.0882C208.287 98.5709 216.773 95.7262 224.094 90.8461C231.414 85.9661 237.304 79.2263 241.159 71.3184C245.015 63.4105 246.697 54.6191 246.034 45.8464C245.37 37.0737 242.384 28.6355 237.383 21.3976C232.382 14.1597 225.545 8.3828 217.574 4.65953C209.602 0.936259 200.784 -0.599261 192.024 0.210516C183.263 1.02029 174.876 4.14621 167.723 9.26753C160.569 14.3889 154.907 21.3212 151.317 29.3532H12.86C9.45045 29.3569 6.18161 30.713 3.7707 33.1239C1.35978 35.5348 0.00370592 38.8037 1.70727e-07 42.2132V57.5852C-0.000131231 57.9701 0.0755895 58.3513 0.22284 58.707C0.37009 59.0627 0.585983 59.3858 0.858177 59.658C1.13037 59.9302 1.45353 60.1461 1.8092 60.2934C2.16486 60.4406 2.54606 60.5163 2.931 60.5162H148.209C149.727 67.1796 152.602 73.4588 156.654 78.962C160.706 84.4652 165.849 89.0745 171.761 92.5022V152.185H5.861V74.0962C5.84682 73.3284 5.53183 72.5968 4.9838 72.0588C4.43577 71.5208 3.69847 71.2193 2.9305 71.2193C2.16253 71.2193 1.42523 71.5208 0.877197 72.0588C0.329166 72.5968 0.0141849 73.3284 1.70727e-07 74.0962V171.653C0.00370592 175.063 1.35978 178.332 3.7707 180.742C6.18161 183.153 9.45045 184.51 12.86 184.513H79.337L71.18 216.837H63.368C62.6002 216.851 61.8686 217.166 61.3306 217.714C60.7926 218.262 60.4911 219 60.4911 219.768C60.4911 220.536 60.7926 221.273 61.3306 221.821C61.8686 222.369 62.6002 222.684 63.368 222.698H143.135C143.903 222.684 144.634 222.369 145.172 221.821C145.71 221.273 146.012 220.536 146.012 219.768C146.012 219 145.71 218.262 145.172 217.714C144.634 217.166 143.903 216.851 143.135 216.837H135.323L127.166 184.513H193.643C197.052 184.509 200.321 183.153 202.732 180.742C205.143 178.331 206.499 175.063 206.503 171.653V165.699L207.736 166.516C209.061 167.394 210.599 167.897 212.186 167.971C213.774 168.045 215.352 167.687 216.752 166.935C218.152 166.183 219.323 165.066 220.138 163.702C220.954 162.338 221.385 160.779 221.385 159.189V106.933C221.371 106.165 221.056 105.434 220.508 104.896C219.96 104.358 219.222 104.056 218.454 104.056C217.687 104.056 216.949 104.358 216.401 104.896C215.853 105.434 215.538 106.165 215.524 106.933V159.189C215.524 159.719 215.38 160.239 215.108 160.693C214.836 161.148 214.446 161.52 213.979 161.77C213.512 162.021 212.986 162.14 212.457 162.116C211.928 162.091 211.416 161.924 210.974 161.631L201.432 155.304C199.992 154.347 198.302 153.837 196.574 153.837C194.846 153.837 193.156 154.347 191.716 155.304L182.173 161.631C181.731 161.924 181.219 162.091 180.69 162.115C180.161 162.14 179.635 162.02 179.169 161.77C178.702 161.519 178.312 161.147 178.04 160.693C177.768 160.238 177.624 159.719 177.624 159.189V95.4122C182.72 97.5271 188.136 98.7701 193.644 99.0892V135.379C193.644 135.764 193.72 136.145 193.867 136.501C194.014 136.857 194.23 137.18 194.502 137.452C194.774 137.724 195.098 137.94 195.453 138.087C195.809 138.235 196.19 138.31 196.575 138.31L196.573 138.309ZM129.279 216.837H77.225L85.382 184.513H121.123L129.279 216.837ZM180.554 167.982C182.282 167.982 183.971 167.472 185.411 166.516L194.953 160.189C195.433 159.87 195.996 159.7 196.573 159.7C197.149 159.7 197.712 159.87 198.192 160.189L200.641 161.813V171.653C200.639 173.509 199.901 175.289 198.589 176.601C197.276 177.913 195.497 178.651 193.641 178.653H12.86C11.004 178.652 9.22442 177.914 7.91201 176.601C6.5996 175.289 5.86159 173.509 5.86 171.653V158.047H171.76V159.19C171.76 161.522 172.687 163.758 174.335 165.407C175.984 167.056 178.22 167.983 180.552 167.983L180.554 167.982ZM5.861 54.6552V42.2132C5.86259 40.3572 6.6006 38.5776 7.91301 37.2652C9.22542 35.9528 11.005 35.2148 12.861 35.2132H149.115C147.209 41.5055 146.571 48.1136 147.239 54.6542L5.861 54.6552ZM152.843 49.5922C152.841 44.2152 153.836 38.8844 155.778 33.8702C155.986 33.5477 156.129 33.1871 156.197 32.8092C160.365 22.7907 168.11 14.6802 177.925 10.0545C187.741 5.42873 198.926 4.61837 209.305 7.78093C219.685 10.9435 228.518 17.853 234.087 27.166C239.655 36.4791 241.562 47.5301 239.435 58.1706C237.309 68.8111 231.301 78.2806 222.581 84.7381C213.861 91.1956 203.051 94.1795 192.253 93.1098C181.455 92.0401 171.44 86.9931 164.157 78.9502C156.873 70.9073 152.84 60.4431 152.843 49.5922V49.5922Z" fill="#C0C0C0"/>
<path d="M189.34 62.5054H186.215C184.381 62.5033 182.622 61.7738 181.326 60.4768C180.029 59.1799 179.299 57.4215 179.297 55.5874V45.9414C179.299 44.1074 180.029 42.3491 181.326 41.0523C182.623 39.7556 184.381 39.0263 186.215 39.0244H189.34C191.174 39.0263 192.932 39.7556 194.229 41.0523C195.526 42.3491 196.256 44.1074 196.258 45.9414V55.5874C196.256 57.4215 195.526 59.1799 194.229 60.4768C192.932 61.7738 191.174 62.5033 189.34 62.5054V62.5054ZM186.215 44.8864C185.935 44.8867 185.666 44.998 185.468 45.1959C185.27 45.3939 185.159 45.6623 185.158 45.9424V55.5884C185.158 55.8687 185.27 56.1374 185.468 56.3355C185.666 56.5337 185.935 56.6452 186.215 56.6454H189.34C189.62 56.6452 189.889 56.5337 190.087 56.3355C190.285 56.1374 190.397 55.8687 190.397 55.5884V45.9424C190.396 45.6623 190.285 45.3939 190.087 45.1959C189.889 44.998 189.62 44.8867 189.34 44.8864H186.215Z" fill="#C0C0C0"/>
<path d="M206.229 62.5054C205.844 62.5056 205.463 62.4298 205.107 62.2826C204.752 62.1353 204.428 61.9194 204.156 61.6472C203.884 61.375 203.668 61.0519 203.521 60.6962C203.374 60.3406 203.298 59.9594 203.298 59.5744V44.8854H203.038C202.649 44.8926 202.262 44.8221 201.9 44.6781C201.538 44.5341 201.208 44.3193 200.931 44.0465C200.653 43.7737 200.432 43.4482 200.281 43.0891C200.13 42.7299 200.053 42.3444 200.053 41.9549C200.053 41.5655 200.13 41.1799 200.281 40.8208C200.432 40.4617 200.653 40.1362 200.931 39.8633C201.208 39.5905 201.538 39.3758 201.9 39.2318C202.262 39.0877 202.649 39.0172 203.038 39.0244H206.229C206.614 39.0243 206.995 39.1 207.351 39.2473C207.706 39.3945 208.03 39.6104 208.302 39.8826C208.574 40.1548 208.79 40.478 208.937 40.8336C209.084 41.1893 209.16 41.5705 209.16 41.9554V59.5754C209.16 59.9603 209.084 60.3414 208.937 60.6969C208.79 61.0525 208.574 61.3755 208.301 61.6476C208.029 61.9197 207.706 62.1355 207.351 62.2827C206.995 62.4299 206.614 62.5056 206.229 62.5054V62.5054Z" fill="#C0C0C0"/>
<path d="M52.816 138.292H40.665C40.1143 138.292 39.5861 138.073 39.1967 137.684C38.8073 137.295 38.5885 136.766 38.5885 136.216C38.5885 135.665 38.8073 135.137 39.1967 134.747C39.5861 134.358 40.1143 134.139 40.665 134.139H52.816C53.3667 134.139 53.8949 134.358 54.2843 134.747C54.6737 135.137 54.8925 135.665 54.8925 136.216C54.8925 136.766 54.6737 137.295 54.2843 137.684C53.8949 138.073 53.3667 138.292 52.816 138.292V138.292Z" fill="#C0C0C0"/>
<path d="M21.895 144.603C21.3576 144.603 20.8422 144.39 20.462 144.01L17.634 141.182C17.2539 140.802 17.0404 140.287 17.0403 139.749C17.0402 139.212 17.2536 138.697 17.6335 138.317C18.0134 137.937 18.5288 137.723 19.0661 137.723C19.6035 137.723 20.1189 137.936 20.499 138.316L21.899 139.711L26.876 134.734C27.2561 134.354 27.7715 134.141 28.3089 134.141C28.8462 134.141 29.3616 134.355 29.7415 134.735C30.1214 135.115 30.3348 135.63 30.3347 136.167C30.3346 136.705 30.1211 137.22 29.741 137.6L23.331 144.01C23.1425 144.199 22.9186 144.348 22.6721 144.45C22.4257 144.552 22.1616 144.604 21.895 144.603V144.603Z" fill="#C0C0C0"/>
<path d="M17.926 69.5171C17.3887 69.5171 16.8734 69.3037 16.4934 68.9237C16.1135 68.5438 15.9 68.0284 15.9 67.4911V67.4381C15.9 66.9007 16.1135 66.3852 16.4936 66.0052C16.8736 65.6251 17.3891 65.4116 17.9265 65.4116C18.464 65.4116 18.9794 65.6251 19.3595 66.0052C19.7395 66.3852 19.953 66.9007 19.953 67.4381V67.4911C19.953 67.7573 19.9006 68.0208 19.7987 68.2667C19.6968 68.5125 19.5475 68.7359 19.3593 68.9241C19.171 69.1122 18.9476 69.2614 18.7016 69.3632C18.4557 69.4649 18.1922 69.5173 17.926 69.5171V69.5171Z" fill="#C0C0C0"/>
<path d="M24.944 69.5171C24.4066 69.5171 23.8913 69.3037 23.5114 68.9237C23.1314 68.5438 22.918 68.0284 22.918 67.4911V67.4381C22.918 66.9007 23.1315 66.3852 23.5115 66.0052C23.8916 65.6251 24.407 65.4116 24.9445 65.4116C25.4819 65.4116 25.9974 65.6251 26.3774 66.0052C26.7575 66.3852 26.971 66.9007 26.971 67.4381V67.4911C26.971 67.7573 26.9185 68.0208 26.8167 68.2667C26.7148 68.5125 26.5655 68.7359 26.3772 68.9241C26.189 69.1122 25.9655 69.2614 25.7196 69.3632C25.4737 69.4649 25.2101 69.5173 24.944 69.5171V69.5171Z" fill="#C0C0C0"/>
<path d="M31.964 69.5171C31.4267 69.5171 30.9113 69.3037 30.5314 68.9237C30.1514 68.5438 29.938 68.0284 29.938 67.4911V67.4381C29.938 66.9007 30.1515 66.3852 30.5315 66.0052C30.9116 65.6251 31.427 65.4116 31.9645 65.4116C32.502 65.4116 33.0174 65.6251 33.3974 66.0052C33.7775 66.3852 33.991 66.9007 33.991 67.4381V67.4911C33.9907 68.0285 33.777 68.5439 33.3969 68.9238C33.0168 69.3037 32.5014 69.5171 31.964 69.5171V69.5171Z" fill="#C0C0C0"/>
<path d="M52.816 90.5812H40.665C40.1143 90.5812 39.5861 90.3624 39.1967 89.973C38.8073 89.5836 38.5885 89.0554 38.5885 88.5047C38.5885 87.954 38.8073 87.4258 39.1967 87.0364C39.5861 86.647 40.1143 86.4282 40.665 86.4282H52.816C53.3667 86.4282 53.8949 86.647 54.2843 87.0364C54.6737 87.4258 54.8925 87.954 54.8925 88.5047C54.8925 89.0554 54.6737 89.5836 54.2843 89.973C53.8949 90.3624 53.3667 90.5812 52.816 90.5812Z" fill="#C0C0C0"/>
<path d="M68.171 90.5812H63.071C62.5203 90.5812 61.9921 90.3624 61.6027 89.973C61.2133 89.5836 60.9945 89.0554 60.9945 88.5047C60.9945 87.954 61.2133 87.4258 61.6027 87.0364C61.9921 86.647 62.5203 86.4282 63.071 86.4282H68.171C68.7217 86.4282 69.2499 86.647 69.6393 87.0364C70.0287 87.4258 70.2475 87.954 70.2475 88.5047C70.2475 89.0554 70.0287 89.5836 69.6393 89.973C69.2499 90.3624 68.7217 90.5812 68.171 90.5812Z" fill="#C0C0C0"/>
<path d="M68.171 98.8163H40.665C40.1143 98.8163 39.5861 98.5975 39.1967 98.2081C38.8073 97.8187 38.5885 97.2905 38.5885 96.7398C38.5885 96.1891 38.8073 95.6609 39.1967 95.2715C39.5861 94.8821 40.1143 94.6633 40.665 94.6633H68.17C68.7207 94.6633 69.2489 94.8821 69.6383 95.2715C70.0277 95.6609 70.2465 96.1891 70.2465 96.7398C70.2465 97.2905 70.0277 97.8187 69.6383 98.2081C69.2489 98.5975 68.7207 98.8163 68.17 98.8163H68.171Z" fill="#C0C0C0"/>
<path d="M21.895 96.8913C21.3576 96.8914 20.8422 96.6781 20.462 96.2983L17.634 93.4703C17.4458 93.2822 17.2965 93.0588 17.1947 92.813C17.0928 92.5672 17.0403 92.3037 17.0403 92.0376C17.0402 91.7716 17.0926 91.5081 17.1944 91.2622C17.2962 91.0164 17.4454 90.793 17.6335 90.6048C17.8216 90.4166 18.045 90.2673 18.2908 90.1655C18.5366 90.0636 18.8001 90.0111 19.0661 90.0111C19.3322 90.011 19.5957 90.0634 19.8416 90.1652C20.0874 90.267 20.3108 90.4162 20.499 90.6043L21.899 92.0043L26.876 87.0273C27.0642 86.8392 27.2876 86.69 27.5334 86.5882C27.7793 86.4864 28.0428 86.434 28.3089 86.4341C28.5749 86.4341 28.8384 86.4866 29.0842 86.5885C29.33 86.6903 29.5534 86.8396 29.7415 87.0278C29.9296 87.216 30.0788 87.4394 30.1806 87.6852C30.2824 87.9311 30.3348 88.1946 30.3347 88.4606C30.3347 88.7267 30.2822 88.9902 30.1803 89.236C30.0785 89.4818 29.9292 89.7052 29.741 89.8933L23.331 96.3033C23.1421 96.4909 22.918 96.6394 22.6716 96.7403C22.4251 96.8412 22.1613 96.8925 21.895 96.8913V96.8913Z" fill="#C0C0C0"/>
<path d="M52.816 114.438H40.665C40.3923 114.438 40.1223 114.384 39.8704 114.28C39.6184 114.176 39.3895 114.023 39.1967 113.83C39.0039 113.637 38.8509 113.408 38.7466 113.156C38.6422 112.904 38.5885 112.634 38.5885 112.362C38.5885 112.089 38.6422 111.819 38.7466 111.567C38.8509 111.315 39.0039 111.086 39.1967 110.893C39.3895 110.701 39.6184 110.548 39.8704 110.443C40.1223 110.339 40.3923 110.285 40.665 110.285H52.816C53.0887 110.285 53.3587 110.339 53.6106 110.443C53.8626 110.548 54.0915 110.701 54.2843 110.893C54.4771 111.086 54.6301 111.315 54.7344 111.567C54.8388 111.819 54.8925 112.089 54.8925 112.362C54.8925 112.634 54.8388 112.904 54.7344 113.156C54.6301 113.408 54.4771 113.637 54.2843 113.83C54.0915 114.023 53.8626 114.176 53.6106 114.28C53.3587 114.384 53.0887 114.438 52.816 114.438V114.438Z" fill="#C0C0C0"/>
<path d="M68.171 114.438H63.071C62.7983 114.438 62.5283 114.384 62.2764 114.28C62.0244 114.176 61.7955 114.023 61.6027 113.83C61.4099 113.637 61.2569 113.408 61.1526 113.156C61.0482 112.904 60.9945 112.634 60.9945 112.362C60.9945 112.089 61.0482 111.819 61.1526 111.567C61.2569 111.315 61.4099 111.086 61.6027 110.893C61.7955 110.701 62.0244 110.548 62.2764 110.443C62.5283 110.339 62.7983 110.285 63.071 110.285H68.171C68.4437 110.285 68.7137 110.339 68.9656 110.443C69.2176 110.548 69.4465 110.701 69.6393 110.893C69.8321 111.086 69.9851 111.315 70.0894 111.567C70.1938 111.819 70.2475 112.089 70.2475 112.362C70.2475 112.634 70.1938 112.904 70.0894 113.156C69.9851 113.408 69.8321 113.637 69.6393 113.83C69.4465 114.023 69.2176 114.176 68.9656 114.28C68.7137 114.384 68.4437 114.438 68.171 114.438V114.438Z" fill="#C0C0C0"/>
<path d="M68.171 122.672H40.665C40.1143 122.672 39.5861 122.454 39.1967 122.064C38.8073 121.675 38.5885 121.146 38.5885 120.596C38.5885 120.045 38.8073 119.517 39.1967 119.127C39.5861 118.738 40.1143 118.519 40.665 118.519H68.17C68.7207 118.519 69.2489 118.738 69.6383 119.127C70.0277 119.517 70.2465 120.045 70.2465 120.596C70.2465 121.146 70.0277 121.675 69.6383 122.064C69.2489 122.454 68.7207 122.672 68.17 122.672H68.171Z" fill="#C0C0C0"/>
<path d="M21.895 120.747C21.3576 120.747 20.8422 120.534 20.462 120.154L17.634 117.326C17.2539 116.946 17.0404 116.431 17.0403 115.894C17.0402 115.356 17.2536 114.841 17.6335 114.461C18.0134 114.081 18.5288 113.867 19.0661 113.867C19.6035 113.867 20.1189 114.08 20.499 114.46L21.899 115.86L26.876 110.883C27.2561 110.503 27.7715 110.29 28.3089 110.29C28.8462 110.29 29.3616 110.504 29.7415 110.884C30.1214 111.264 30.3348 111.779 30.3347 112.317C30.3346 112.854 30.1211 113.369 29.741 113.749L23.331 120.159C23.1421 120.347 22.918 120.495 22.6716 120.596C22.4251 120.697 22.1613 120.748 21.895 120.747V120.747Z" fill="#C0C0C0"/>
</svg>
