<svg width="208" height="201" viewBox="0 0 208 201" fill="none" xmlns="http://www.w3.org/2000/svg">
<path d="M197.478 0H9.712C7.13622 0 4.66593 1.02323 2.84458 2.84458C1.02323 4.66593 0 7.13622 0 9.712L0 152.155C0 153.014 0.34104 153.837 0.948095 154.444C1.55515 155.051 2.37849 155.392 3.237 155.392H76.984L71.804 181.292H64.747C63.8885 181.292 63.0652 181.633 62.4581 182.24C61.851 182.847 61.51 183.671 61.51 184.529V194.241H55.035V200.716H152.155V194.24H145.68V184.528C145.68 183.669 145.339 182.846 144.732 182.239C144.125 181.632 143.301 181.291 142.443 181.291H135.38L130.2 155.391H203.952C204.81 155.391 205.634 155.05 206.241 154.443C206.848 153.836 207.189 153.012 207.189 152.154V9.712C207.189 7.13639 206.166 4.66626 204.345 2.84493C202.524 1.02361 200.054 0.000265199 197.478 0V0ZM132.731 187.766H139.206V194.241H67.984V187.766H132.731ZM78.408 181.291L83.583 155.391H123.6L128.78 181.291H78.408ZM200.715 148.918H6.475V119.782H200.715V148.918ZM155.392 29.136H129.492C128.633 29.136 127.81 29.477 127.203 30.0841C126.596 30.6912 126.255 31.5145 126.255 32.373V61.509H132.73V35.609H152.154V48.56H139.206V55.035H152.155V71.221H139.206V77.7H152.155V93.887H139.206V100.362H152.155V113.311H132.731V87.411H126.256V113.311H113.307V97.12C113.307 83.908 129.351 81.005 130.025 80.888C130.545 80.8008 131.036 80.588 131.454 80.2681C131.873 79.9483 132.208 79.5309 132.429 79.0524C132.65 78.5739 132.751 78.0486 132.723 77.5222C132.695 76.9959 132.539 76.4843 132.268 76.032L103.132 27.472C102.823 27.0211 102.409 26.6523 101.926 26.3975C101.442 26.1427 100.904 26.0095 100.357 26.0095C99.811 26.0095 99.2728 26.1427 98.7893 26.3975C98.3059 26.6523 97.8918 27.0211 97.583 27.472L68.447 76.032C68.1764 76.4837 68.0201 76.9946 67.9915 77.5203C67.9629 78.0461 68.063 78.5709 68.2831 79.0493C68.5032 79.5276 68.8366 79.9451 69.2544 80.2655C69.6723 80.5859 70.1619 80.7996 70.681 80.888C71.364 81.005 87.408 83.908 87.408 97.12V113.307H74.459V87.407H67.984V113.307H64.747V55.035H67.984V61.51H74.459V51.8C74.4601 51.3612 74.3709 50.9269 74.197 50.524L64.485 27.861C64.2354 27.2789 63.8205 26.7828 63.2916 26.4342C62.7628 26.0856 62.1434 25.8998 61.51 25.8998C60.8766 25.8998 60.2572 26.0856 59.7283 26.4342C59.1995 26.7828 58.7846 27.2789 58.535 27.861L48.822 50.522C48.6478 50.9255 48.5587 51.3605 48.56 51.8V113.309H22.66V22.661H184.528V113.307H158.628V32.373C158.628 31.5147 158.287 30.6915 157.68 30.0844C157.073 29.4774 156.25 29.1363 155.392 29.136V29.136ZM93.883 103.595V100.358H106.832V103.595H93.883ZM106.832 110.07V113.307H93.883V110.07H106.832ZM93.647 93.883C92.1 83.588 83.281 78.02 76.23 75.64L97.12 40.825V67.984H103.595V40.825L124.485 75.64C117.428 78.003 108.619 83.588 107.068 93.882L93.647 93.883ZM56.7 48.56L61.509 37.339L66.319 48.56H56.7ZM58.272 55.035V113.307H55.035V55.035H58.272ZM200.715 113.307H191V19.424C191 18.5655 190.659 17.7422 190.052 17.1351C189.445 16.528 188.622 16.187 187.763 16.187H19.424C18.5655 16.187 17.7422 16.528 17.1351 17.1351C16.528 17.7422 16.187 18.5655 16.187 19.424V113.307H6.475V9.712C6.475 8.85349 6.81604 8.03015 7.4231 7.4231C8.03015 6.81604 8.85349 6.475 9.712 6.475H197.478C198.337 6.475 199.16 6.81604 199.767 7.4231C200.374 8.03015 200.715 8.85349 200.715 9.712V113.307Z" fill="#C0C0C0"/>
<path d="M103.595 123.019C101.674 123.019 99.7965 123.589 98.1994 124.656C96.6022 125.723 95.3574 127.24 94.6223 129.014C93.8873 130.789 93.6949 132.742 94.0697 134.626C94.4444 136.51 95.3694 138.24 96.7276 139.598C98.0859 140.957 99.8164 141.882 101.7 142.256C103.584 142.631 105.537 142.439 107.312 141.704C109.086 140.969 110.603 139.724 111.67 138.127C112.737 136.53 113.307 134.652 113.307 132.731C113.307 130.155 112.284 127.685 110.462 125.864C108.641 124.042 106.171 123.019 103.595 123.019ZM103.595 135.968C102.955 135.968 102.329 135.778 101.797 135.423C101.264 135.067 100.849 134.561 100.604 133.97C100.359 133.378 100.295 132.727 100.42 132.1C100.545 131.472 100.853 130.895 101.306 130.442C101.759 129.989 102.336 129.681 102.964 129.556C103.591 129.431 104.242 129.495 104.834 129.74C105.425 129.985 105.931 130.4 106.287 130.933C106.642 131.465 106.832 132.091 106.832 132.731C106.832 133.59 106.491 134.413 105.884 135.02C105.277 135.627 104.454 135.968 103.595 135.968Z" fill="#C0C0C0"/>
</svg>
