<svg xmlns="http://www.w3.org/2000/svg" width="207.19" height="200.715" viewBox="0 0 207.19 200.715">
  <g id="_002-computer-graphic" data-name="002-computer-graphic" transform="translate(0 -8)">
    <g id="Grupo_173" data-name="Grupo 173" transform="translate(0 8)">
      <g id="Grupo_172" data-name="Grupo 172">
        <path id="Trazado_423" data-name="Trazado 423" d="M197.478,8H9.712A9.712,9.712,0,0,0,0,17.712V160.155a3.237,3.237,0,0,0,3.237,3.237H76.984l-5.18,25.9H64.747a3.237,3.237,0,0,0-3.237,3.237v9.712H55.035v6.475h97.12V202.24H145.68v-9.712a3.237,3.237,0,0,0-3.237-3.237H135.38l-5.18-25.9h73.752a3.238,3.238,0,0,0,3.237-3.237V17.712A9.712,9.712,0,0,0,197.478,8ZM132.731,195.766h6.475v6.475H67.984v-6.475h64.747Zm-54.323-6.475,5.175-25.9H123.6l5.18,25.9Zm122.307-32.373H6.475V127.782h194.24ZM155.392,37.136h-25.9a3.237,3.237,0,0,0-3.237,3.237V69.509h6.475v-25.9h19.424V56.56H139.206v6.475h12.949V79.221H139.206V85.7h12.949v16.187H139.206v6.475h12.949v12.949H132.731v-25.9h-6.475v25.9H113.307V105.12c0-13.212,16.044-16.115,16.718-16.232a3.238,3.238,0,0,0,2.243-4.856l-29.136-48.56a3.363,3.363,0,0,0-5.549,0L68.447,84.032a3.238,3.238,0,0,0,2.234,4.856c.683.117,16.727,3.02,16.727,16.232v16.187H74.459v-25.9H67.984v25.9H64.747V63.035h3.237v6.475h6.475V59.8a3.2,3.2,0,0,0-.262-1.276L64.485,35.861a3.237,3.237,0,0,0-5.95,0L48.822,58.522A3.2,3.2,0,0,0,48.56,59.8v61.509h-25.9V30.661H184.528v90.646h-25.9V40.373A3.237,3.237,0,0,0,155.392,37.136ZM93.883,111.595v-3.237h12.949v3.237Zm12.949,6.475v3.237H93.883V118.07ZM93.647,101.883C92.1,91.588,83.281,86.02,76.23,83.64L97.12,48.825V75.984h6.475V48.825L124.485,83.64c-7.057,2.363-15.866,7.948-17.417,18.242ZM56.7,56.56l4.809-11.221L66.319,56.56Zm1.572,6.475v58.272H55.035V63.035Zm142.443,58.272H191V27.424a3.237,3.237,0,0,0-3.237-3.237H19.424a3.237,3.237,0,0,0-3.237,3.237v93.883H6.475V17.712a3.237,3.237,0,0,1,3.237-3.237H197.478a3.237,3.237,0,0,1,3.237,3.237Z" transform="translate(0 -8)" fill="#fafafa"/>
      </g>
    </g>
    <g id="Grupo_175" data-name="Grupo 175" transform="translate(93.883 131.019)">
      <g id="Grupo_174" data-name="Grupo 174">
        <path id="Trazado_424" data-name="Trazado 424" d="M241.712,312a9.712,9.712,0,1,0,9.712,9.712A9.712,9.712,0,0,0,241.712,312Zm0,12.949a3.237,3.237,0,1,1,3.237-3.237A3.237,3.237,0,0,1,241.712,324.949Z" transform="translate(-232 -312)" fill="#fafafa"/>
      </g>
    </g>
  </g>
</svg>
