<svg xmlns="http://www.w3.org/2000/svg" width="47" height="47" viewBox="0 0 47 47">
  <g id="javascriptLogo" opacity="0.61">
    <path id="Trazado_929" data-name="Trazado 929" d="M0,0H47V47H0Z" fill="#f7df1e"/>
    <path id="Trazado_930" data-name="Trazado 930" d="M67.311,135.228l3.6-2.177c.694,1.23,1.325,2.271,2.839,2.271,1.451,0,2.366-.568,2.366-2.776V117.529h4.417v15.08c0,4.575-2.682,6.657-6.594,6.657a6.855,6.855,0,0,1-6.625-4.038" transform="translate(-54.953 -95.951)" fill="#312727"/>
    <path id="Trazado_931" data-name="Trazado 931" d="M152.381,133.631l3.6-2.082a4.807,4.807,0,0,0,4.354,2.682c1.83,0,3-.915,3-2.177,0-1.514-1.2-2.051-3.218-2.934l-1.1-.473c-3.187-1.356-5.3-3.06-5.3-6.657,0-3.313,2.524-5.837,6.468-5.837a6.523,6.523,0,0,1,6.278,3.534l-3.439,2.208A3.007,3.007,0,0,0,160.174,120a1.922,1.922,0,0,0-2.114,1.893c0,1.325.82,1.861,2.713,2.682l1.1.473c3.754,1.609,5.868,3.249,5.868,6.941,0,3.976-3.123,6.152-7.319,6.152-4.1,0-6.751-1.956-8.045-4.512" transform="translate(-124.405 -94.828)" fill="#312727"/>
  </g>
</svg>
