<svg width="496" height="496" viewBox="0 0 496 496" fill="none" xmlns="http://www.w3.org/2000/svg">
<path d="M472 0H120C106.768 0 96 10.768 96 24V144H40C17.944 144 0 161.944 0 184V376C0 398.056 17.944 416 40 416H116.896L106.232 448H80C66.768 448 56 458.768 56 472V496H296V472C296 458.768 285.232 448 272 448H245.768L235.104 416H312C334.056 416 352 398.056 352 376V368H472C485.232 368 496 357.232 496 344V24C496 10.768 485.232 0 472 0ZM120 16H472C476.408 16 480 19.592 480 24V64H112V24C112 19.592 115.592 16 120 16ZM40 160H312C325.232 160 336 170.768 336 184V336H16V184C16 170.768 26.768 160 40 160ZM352 208H448V320H352V208ZM280 472V480H72V472C72 467.592 75.592 464 80 464H272C276.408 464 280 467.592 280 472ZM228.896 448H123.104L133.768 416H218.232L228.896 448ZM312 400H40C26.768 400 16 389.232 16 376V352H336V376C336 389.232 325.232 400 312 400ZM472 352H352V336H464V192H352V184C352 161.944 334.056 144 312 144H112V80H480V344C480 348.408 476.408 352 472 352Z" fill="#C0C0C0"/>
<path d="M136 368H152V384H136V368Z" fill="#C0C0C0"/>
<path d="M168 368H184V384H168V368Z" fill="#C0C0C0"/>
<path d="M200 368H216V384H200V368Z" fill="#C0C0C0"/>
<path d="M128 96H144V112H128V96Z" fill="#C0C0C0"/>
<path d="M160 96H464V112H160V96Z" fill="#C0C0C0"/>
<path d="M368 128H464V144H368V128Z" fill="#C0C0C0"/>
<path d="M368 160H464V176H368V160Z" fill="#C0C0C0"/>
<path d="M56 320H216C229.232 320 240 309.232 240 296V200C240 186.768 229.232 176 216 176H56C42.768 176 32 186.768 32 200V296C32 309.232 42.768 320 56 320ZM48 200C48 195.592 51.592 192 56 192H216C220.408 192 224 195.592 224 200V296C224 300.408 220.408 304 216 304H56C51.592 304 48 300.408 48 296V200Z" fill="#C0C0C0"/>
<path d="M112.458 293.339L144.435 197.308L159.619 202.364L127.642 298.395L112.458 293.339Z" fill="#C0C0C0"/>
<path d="M173.656 285.656L211.312 248L173.656 210.344L162.344 221.656L188.688 248L162.344 274.344L173.656 285.656Z" fill="#C0C0C0"/>
<path d="M109.656 274.344L83.312 248L109.656 221.656L98.344 210.344L60.688 248L98.344 285.656L109.656 274.344Z" fill="#C0C0C0"/>
<path d="M256 176H320V192H256V176Z" fill="#C0C0C0"/>
<path d="M256 208H320V224H256V208Z" fill="#C0C0C0"/>
<path d="M256 240H320V256H256V240Z" fill="#C0C0C0"/>
<path d="M256 272H320V288H256V272Z" fill="#C0C0C0"/>
<path d="M272 304H288V320H272V304Z" fill="#C0C0C0"/>
<path d="M304 304H320V320H304V304Z" fill="#C0C0C0"/>
</svg>
