<svg xmlns="http://www.w3.org/2000/svg" width="53.864" height="44.826" viewBox="0 0 53.864 44.826">
  <g id="Grupo_257" data-name="Grupo 257" transform="translate(0)">
    <path id="Trazado_783" data-name="Trazado 783" d="M0,34.819Z" transform="translate(0 -9.693)" fill="#f2c693"/>
    <g id="Grupo_248" data-name="Grupo 248" transform="translate(13.565 0)">
      <path id="Trazado_716" data-name="Trazado 716" d="M-47.973,1265.1c.073.271.156.54.218.813.38,1.677.751,3.621,2.944,3.433,2.5-.215,2.268-2.592,2.694-4.335.1-.418.193-1.03-.374-1.2-.736-.22-.963.445-1.118.954-.162.529-.081,1.134-.253,1.658-.191.58-.31,1.4-1.189,1.3-.61-.067-.852-.6-1.02-1.187-.414-1.44-.8-2.826-2.608-3.3-2.5-.656-3.88.205-4.084,2.843-.036.467-.006.938-.012,1.407-.008.66.062,1.5-.642,1.722-.774.246-.99-.643-1.364-1.136-.6-.8-.524-2.85-1.762-2.211-1.1.567.086,2.161.613,3.184.573,1.112,1.425,2.148,2.833,1.86,1.284-.263,1.516-1.494,1.774-2.619s-.169-2.388.865-3.363c.561,3.524.981,7.051-1.616,10.084-2.036,2.378-4.169,2.328-6.076-.167A23.111,23.111,0,0,1-62.2,1266.6c-.751-2.879.615-4.945,2.868-6.45,2.071-1.383,3.982-3.644,6.96-1.8a3.672,3.672,0,0,0,3.743,0c3.5-1.765,7.573-.329,8.607,3.386a10.742,10.742,0,0,1-2.348,10.5c-2,2.225-4.369,1.688-5.356-1.157-.668-1.926-1.173-3.934-.208-5.952l-.327.354Z" transform="translate(68.431 -1244.469)" fill="#fff"/>
      <path id="Trazado_717" data-name="Trazado 717" d="M-41.946,1306.059c3.394-.124,5.058-2.443,6.531-5.311,1.4.979,2.529,2.487,4.511,2.162a6.249,6.249,0,0,0,4.072-2.742c.581-.785,1.123-.7,1.922-.351a25.875,25.875,0,0,1,8.06,5.009c3.516,3.451,2.973,7.7-1.482,9.815a21.858,21.858,0,0,1-17.8.483c2.863-2.389,5.5-4.563,8.1-6.775.955-.812,1.282.032,1.748.562,1.059,1.207,2.119,2.378,3.9,2.47a3.01,3.01,0,0,0,3.1-1.456,2.781,2.781,0,0,0-.353-3.144c-1.973-3.12-6.554-4.314-10.552-2.623a80.889,80.889,0,0,1-7.973,3.384c-1.868.565-2.973.07-3.755-1.579Z" transform="translate(54.855 -1272.307)" fill="#fff"/>
      <path id="Trazado_718" data-name="Trazado 718" d="M-67.39,1310.72s.026-.089.027-.092c-1.806.3-3.608.647-5.423.907a5.979,5.979,0,0,0-3.043,1.326,2.559,2.559,0,0,0-1.089,2.956,2.366,2.366,0,0,0,2.527,1.41c2.918-.078,5.832-.233,8.052-2.532.953-.986,2.3-.664,3.4-1.094,2.695-1.05,5.339-2.228,8.008-3.345,2.831-1.186,5.484-1,7.832,1.12.787.712,1.62,1.7.854,2.675-.841,1.073-2.081.579-3-.157a5.948,5.948,0,0,1-1.851-2.057c-.789-1.879-1.61-1.461-2.821-.429-3.338,2.845-6.566,5.826-10.449,7.98a16.373,16.373,0,0,1-9.934,2.321,6.583,6.583,0,0,1-4.862-10.275c1.327-2.024,3.384-3.2,5.332-4.5.932-.625,1.477-.353,2.028.531A7.222,7.222,0,0,0-67.39,1310.72Z" transform="translate(80.299 -1276.969)" fill="#fff"/>
      <path id="Trazado_719" data-name="Trazado 719" d="M-32.349,1224.733c-.029,4.206-1.214,6.7-3.1,6.663-2.976-.06-3.18-2.7-3.79-4.771a31.663,31.663,0,0,1-.818-4.4c-.442-3.047,1.323-4.406,4.2-3.195C-33,1220.228-32.436,1222.746-32.349,1224.733Z" transform="translate(53.648 -1218.585)" fill="#fff"/>
      <path id="Trazado_720" data-name="Trazado 720" d="M-64.354,1327.843a1.322,1.322,0,0,1-1.473-.719c-.24-.709.414-1.225,1-1.482,1.966-.868,4.108-.831,6.194-1.062a.632.632,0,0,1,.753.616,1.174,1.174,0,0,1-.686,1.1C-60.284,1327.372-62.276,1327.386-64.354,1327.843Z" transform="translate(70.732 -1288.901)" fill="#fff"/>
      <path id="Trazado_721" data-name="Trazado 721" d="M-19.736,1279.907l-.167.061c.045-.029.09-.058.132-.089C-19.772,1279.876-19.736,1279.907-19.736,1279.907Z" transform="translate(40.231 -1259.249)" fill="#fff"/>
    </g>
  </g>
</svg>
