<svg xmlns="http://www.w3.org/2000/svg" width="26.996" height="60.288" viewBox="0 0 26.996 60.288">
  <g id="MongoLogo" transform="translate(-184 -2295)" opacity="0.61">
    <path id="Trazado_914" data-name="Trazado 914" d="M28.243,70.764l-1.605-.549s.2-8.182-2.74-8.769c-1.957-2.271.313-96.3,7.36-.313,0,0-2.427,1.214-2.858,3.289a30.2,30.2,0,0,0-.157,6.342Z" transform="translate(170.628 2284.524)" fill="#a6a385" fill-rule="evenodd"/>
    <path id="Trazado_915" data-name="Trazado 915" d="M33.737,52.8S47.791,43.557,44.5,24.335C41.331,10.359,33.854,5.779,33.032,4.017A19.75,19.75,0,0,1,31.27.572l.588,38.874c0,.039-1.214,11.9,1.879,13.35" transform="translate(165.995 2294.584)" fill="#499d4a" fill-rule="evenodd"/>
    <path id="Trazado_916" data-name="Trazado 916" d="M12.444,53.092s-13.193-9-12.41-24.859C.777,12.378,10.095,4.588,11.9,3.178A3.645,3.645,0,0,0,13.188.2c.822,1.762.666,26.347.783,29.244.352,11.157-.626,21.532-1.527,23.645Z" transform="translate(184 2294.797)" fill="#58aa50" fill-rule="evenodd"/>
  </g>
</svg>
