<svg xmlns="http://www.w3.org/2000/svg" width="65.387" height="46.685" viewBox="0 0 65.387 46.685">
  <path id="phpLogo" d="M21.751,108.544a5.058,5.058,0,0,0-3.2-4.41c-.8-.307-1.494-.866-2.283-1.218a17.959,17.959,0,0,0-2.755-1.034,1.638,1.638,0,0,0-1.808.759c-.4.59-.111,1.146.226,1.64.379.556.8,1.084,1.226,1.605.7.866,1.452,1.7,2.138,2.575a4.137,4.137,0,0,1,1.119,2.881,9.2,9.2,0,0,1-3.092,6.1,1.177,1.177,0,0,1-.793.28,5.025,5.025,0,0,1-3-1.345,1.514,1.514,0,0,1,.333-2.64,7.185,7.185,0,0,0,.8-.494,1.757,1.757,0,0,0,.552-2.2,3.4,3.4,0,0,0-.682-1.054c-1.46-1.329-2.893-2.7-4.456-3.912A15.194,15.194,0,0,1,.055,94.529a24.211,24.211,0,0,1,3.64-14.59,9.847,9.847,0,0,1,4.134-4.153,25.686,25.686,0,0,1,4.027-1.249c3.743-.985,7.521-1.724,11.417-1.065,3.356.563,5.812,2.291,6.939,5.59a15.521,15.521,0,0,1,.686,6.67,11.391,11.391,0,0,1-8.088,9.686c-1.873.513-2.9.226-4.023-1.333-.808-1.123-1.479-2.345-2.2-3.529-.107-.176-.184-.379-.276-.567s-.184-.368-.276-.556a13.448,13.448,0,0,0,1.785,5.49A3.216,3.216,0,0,0,20.28,96.6,10.675,10.675,0,0,0,30.372,92.3c2.77-3.716,3.379-7.992,2.578-12.494-.157-.889-.421-1.759-.609-2.644A.938.938,0,0,1,33,75.966a6.71,6.71,0,0,1,.789-.215,32.735,32.735,0,0,1,10.241-.621,23.8,23.8,0,0,1,10.912,3.636A24.622,24.622,0,0,1,65.072,92.882a10.416,10.416,0,0,1,.314,2.678c.015.6-.368.755-.824.379a12.634,12.634,0,0,1-1.395-1.36c-.4-.456-.724-.977-1.115-1.456-.3-.375-.567-.318-.713.149-.092.284-.172.563-.253.847a20.46,20.46,0,0,1-4.64,8.647,2.447,2.447,0,0,0-.647,1.326,22.159,22.159,0,0,0-.05,3.839c.253,2.724.647,5.437.954,8.157a2.452,2.452,0,0,1-1.766,2.973,11.825,11.825,0,0,1-3.176.72c-1.709.119-3.433.034-5.149.034-.046-1.916.119-3.8-1.682-4.824.349-1.421.751-2.77.992-4.149a3.741,3.741,0,0,0-.774-3.211,1.941,1.941,0,0,0-2.567-.621,9.149,9.149,0,0,1-8.084.533,2.085,2.085,0,0,0-2.854.958,6.958,6.958,0,0,0-.988,4.057c.107,1.782.418,3.544.655,5.318.13.992.019,1.249-.965,1.5a20.225,20.225,0,0,1-6.651.437,1.948,1.948,0,0,1-.314-.08c-.111-1.858.084-3.789-2.13-4.778a10.639,10.639,0,0,0,.51-6.394l-.008-.019ZM8.526,101.253a2.479,2.479,0,0,0,.678-1.226,3.017,3.017,0,0,0-1.555-2.992,1.049,1.049,0,0,0-1.314.264q-1.316,1.488-2.605,3a3.075,3.075,0,0,0-.379.579.816.816,0,0,0,.594,1.326,13.364,13.364,0,0,0,1.36.2,5.146,5.146,0,0,0,3.222-1.149v0Zm.1-11.03a1.472,1.472,0,0,0-1.441-1.452,1.494,1.494,0,0,0-1.464,1.5A1.472,1.472,0,0,0,7.2,91.686a1.445,1.445,0,0,0,1.425-1.46Z" transform="translate(0 -73.222)" fill="#777bb4" opacity="0.61"/>
</svg>
