<svg xmlns="http://www.w3.org/2000/svg" width="62.727" height="55.809" viewBox="0 0 62.727 55.809">
  <g id="reactLogo" opacity="0.61">
    <path id="Trazado_913" data-name="Trazado 913" d="M51.574,18.089q-.976-.336-2.019-.636.171-.7.312-1.377C51.4,8.656,50.4,2.678,46.983.71c-3.272-1.887-8.624.081-14.029,4.784q-.78.678-1.562,1.433-.52-.5-1.039-.96C24.689.938,19.011-1.181,15.6.792,12.332,2.685,11.364,8.3,12.74,15.336q.2,1.019.464,2.078c-.8.228-1.579.471-2.322.73C4.241,20.459,0,24.088,0,27.852,0,31.739,4.553,35.638,11.47,38q.819.28,1.7.53-.284,1.144-.493,2.239c-1.312,6.91-.287,12.4,2.973,14.277,3.368,1.942,9.02-.054,14.524-4.865q.653-.57,1.309-1.206.85.819,1.7,1.547c5.331,4.587,10.6,6.44,13.854,4.554,3.364-1.948,4.458-7.842,3.038-15.012q-.162-.821-.376-1.676.6-.176,1.166-.365c7.191-2.382,11.87-6.234,11.87-10.174,0-3.778-4.378-7.431-11.153-9.763Zm-1.56,17.393q-.515.17-1.054.33a62.862,62.862,0,0,0-3.176-7.947,62.842,62.842,0,0,0,3.053-7.83q.963.279,1.865.588c5.8,2,9.345,4.953,9.345,7.229,0,2.425-3.824,5.573-10.033,7.63Zm-2.576,5.1a22.7,22.7,0,0,1,.3,8.279c-.374,2.014-1.125,3.356-2.054,3.894-1.977,1.144-6.2-.343-10.763-4.266q-.784-.675-1.577-1.438A62.919,62.919,0,0,0,38.6,40.379a62.539,62.539,0,0,0,8.5-1.31q.192.774.34,1.517ZM21.385,52.562c-1.931.682-3.47.7-4.4.165-1.979-1.141-2.8-5.546-1.679-11.456q.193-1.015.458-2.082a63.029,63.029,0,0,0,8.453,1.224A65.244,65.244,0,0,0,29.6,47.066q-.6.579-1.195,1.1a22.7,22.7,0,0,1-7.022,4.4Zm-9.048-17.1A22.7,22.7,0,0,1,5.021,31.58C3.465,30.248,2.68,28.925,2.68,27.852c0-2.284,3.405-5.2,9.085-7.178.689-.24,1.41-.467,2.159-.679a64.232,64.232,0,0,0,3.057,7.922,65.286,65.286,0,0,0-3.1,8.035q-.8-.23-1.548-.485ZM15.37,14.821c-1.179-6.025-.4-10.569,1.574-11.71,2.1-1.215,6.739.517,11.63,4.86q.469.416.941.869a64.2,64.2,0,0,0-5.344,6.613,65.49,65.49,0,0,0-8.37,1.3q-.245-.985-.431-1.933ZM42.427,21.5q-.931-1.608-1.908-3.137c2,.253,3.919.589,5.72,1a57.226,57.226,0,0,1-2.008,5.4q-.854-1.62-1.8-3.264ZM31.393,10.755a57.314,57.314,0,0,1,3.691,4.456q-1.84-.087-3.721-.088-1.861,0-3.693.086c1.219-1.607,2.467-3.1,3.722-4.455Zm-11.1,10.766q-.93,1.613-1.771,3.244c-.78-1.851-1.448-3.671-1.993-5.428,1.79-.4,3.7-.728,5.687-.976q-.988,1.541-1.923,3.16Zm1.98,16.013a57.03,57.03,0,0,1-5.781-.929c.554-1.788,1.236-3.647,2.033-5.538q.842,1.627,1.778,3.246h0q.953,1.646,1.969,3.221Zm9.2,7.6c-1.27-1.37-2.537-2.886-3.774-4.517q1.8.071,3.67.071,1.918,0,3.786-.084a57.008,57.008,0,0,1-3.682,4.53ZM44.258,30.97a56.817,56.817,0,0,1,2.106,5.518,56.846,56.846,0,0,1-5.851,1q.977-1.548,1.926-3.192.958-1.662,1.819-3.324Zm-4.14,1.985c-.981,1.7-1.987,3.323-3.009,4.855-1.861.133-3.784.2-5.744.2s-3.851-.061-5.679-.179c-1.063-1.552-2.092-3.18-3.066-4.863h0c-.972-1.678-1.866-3.371-2.676-5.054.81-1.687,1.7-3.381,2.668-5.057h0c.969-1.68,1.988-3.3,3.042-4.842,1.865-.141,3.779-.215,5.712-.215h0c1.942,0,3.857.074,5.722.216,1.037,1.531,2.05,3.146,3.022,4.826.984,1.7,1.887,3.382,2.7,5.033-.815,1.679-1.716,3.379-2.7,5.077ZM45.645,3.032c2.1,1.211,2.917,6.1,1.6,12.5q-.126.613-.282,1.247a64.191,64.191,0,0,0-8.387-1.325,62.93,62.93,0,0,0-5.3-6.618q.723-.7,1.443-1.323c4.631-4.03,8.959-5.621,10.931-4.484ZM31.363,22.25a5.6,5.6,0,1,1-5.6,5.6,5.6,5.6,0,0,1,5.6-5.6Z" fill="#00d8ff"/>
  </g>
</svg>
